<svg xmlns="http://www.w3.org/2000/svg" xmlns:xlink="http://www.w3.org/1999/xlink" viewBox="0 0 3710 3710"><style>.AF{fill:#fff}.AG{opacity:.6}.AH{fill:#91b3fa}</style><defs><linearGradient xlink:href="#u" id="A" x1="3621.09" x2="1115.42" y1="4094.65" y2="982.77"><stop offset="0" stop-color="#dae3fe"/><stop offset="1" stop-color="#e9effd"/></linearGradient><linearGradient xlink:href="#u" id="B" x1="2200.5" x2="2205.38" y1="2942.56" y2="432.58"><stop offset="0" stop-color="#09005d"/><stop offset="1" stop-color="#1a0f91"/></linearGradient><linearGradient xlink:href="#u" id="C" x1="-803.7" x2="717.03" y1="3491.3" y2="1247.69" gradientTransform="matrix(-1 .02 .02 1 2346.2 -58.45)"><stop offset="0" stop-color="#4f52ff"/><stop offset="1" stop-color="#4042e2"/></linearGradient><linearGradient xlink:href="#C" id="D" x1="3.31" x2="-632.14" y1="1177.74" y2="2123.78" gradientTransform="matrix(-.06 -1 -1 .06 3794.04 1093.82)"/><linearGradient xlink:href="#C" id="E" x1="111.85" x2="-523.63" y1="1250.62" y2="2196.7"/><linearGradient xlink:href="#B" id="F" x1="2401.818" x2="1775.536" y1="414.113" y2="1277.974"/><linearGradient xlink:href="#B" id="G" x1="466.65" x2="-133.13" y1="546.47" y2="1335.47" gradientTransform="matrix(-1 .02 .02 1 2346.2 -58.45)"/><linearGradient xlink:href="#B" id="H" x1="2191.6" x2="2172.11" y1="1050.27" y2="177.87"/><linearGradient xlink:href="#C" id="I" x1="1743.77" x2="1948.25" y1="2385.8" y2="2385.8"/><linearGradient xlink:href="#B" id="J" x1="3527.84" x2="2621.15" y1="1514.01" y2="2455.06"/><linearGradient xlink:href="#B" id="K" x1="3639.77" x2="2718.15" y1="1569.58" y2="2526.11"/><linearGradient xlink:href="#B" id="L" x1="3429.65" x2="2522.96" y1="1419.41" y2="2360.45"/><linearGradient xlink:href="#u" id="M" x1="1688.24" x2="1917.7" y1="2875.34" y2="2875.34"><stop offset="0" stop-color="#febbba"/><stop offset="1" stop-color="#ff928e"/></linearGradient><linearGradient xlink:href="#u" id="N" x1="-3901.74" x2="-3134.17" y1="6811.75" y2="6322.37"><stop offset="0" stop-color="#53d8ff"/><stop offset="1" stop-color="#3840f7"/></linearGradient><linearGradient xlink:href="#M" id="O" x1="1738.21" x2="1441.72" y1="2971.38" y2="2461.41"/><linearGradient xlink:href="#u" id="P" x1="2901.78" x2="2269.84" y1="1629.44" y2="2391.89"><stop offset="0" stop-color="#ff928e"/><stop offset="1" stop-color="#fe7062"/></linearGradient><linearGradient xlink:href="#N" id="Q" x1="-3972.23" x2="-3204.67" y1="6701.2" y2="6211.81"/><linearGradient xlink:href="#P" id="R" x1="1927.43" x2="2071.68" y1="1779.56" y2="2267.25"/><linearGradient xlink:href="#M" id="S" x1="2021.99" x2="1997.77" y1="2226.43" y2="2071.02"/><linearGradient xlink:href="#M" id="T" x1="1895.65" x2="2124.87" y1="1991.605" y2="2029.598"/><linearGradient xlink:href="#B" id="U" x1="2097.43" x2="1945.282" y1="1628.354" y2="2067.978"/><linearGradient xlink:href="#M" id="V" x1="1898.999" x2="2128.228" y1="1971.382" y2="2009.371"/><linearGradient xlink:href="#M" id="W" x1="2161.03" x2="2615.9" y1="2495.52" y2="2495.52"/><linearGradient xlink:href="#B" id="X" x1="2285.245" x2="2133.097" y1="1693.349" y2="2132.974"/><linearGradient xlink:href="#C" id="Y" x1="3116.8" x2="3415.79" y1="2881.93" y2="2881.93" gradientTransform="translate(-2209.36)"/><linearGradient xlink:href="#C" id="Z" x1="3151.33" x2="3450.32" y1="2881.93" y2="2881.93" gradientTransform="translate(-2209.36)"/><linearGradient xlink:href="#C" id="a" x1="4239.75" x2="4538.74" y1="2881.93" y2="2881.93" gradientTransform="translate(-2209.36)"/><linearGradient xlink:href="#C" id="b" x1="4274.27" x2="4573.26" y1="2881.93" y2="2881.93" gradientTransform="translate(-2209.36)"/><linearGradient xlink:href="#C" id="c" x1="3029.81" x2="4647.89" y1="2573.39" y2="2573.39" gradientTransform="translate(-2209.36)"/><linearGradient xlink:href="#C" id="d" x1="4511.59" x2="4719.96" y1="3167.76" y2="3167.76" gradientTransform="translate(-3467.87)"/><linearGradient xlink:href="#B" id="e" x1="1204.26" x2="1147.33" y1="2767.09" y2="3160.44"/><linearGradient xlink:href="#M" id="f" x1="1054.13" x2="1110.51" y1="3104.97" y2="3104.97"/><linearGradient xlink:href="#C" id="g" x1="4838.41" x2="5006.64" y1="3126.46" y2="3126.46" gradientTransform="translate(-3467.87)"/><linearGradient xlink:href="#B" id="h" x1="1486.26" x2="1429.33" y1="2807.9" y2="3201.25"/><linearGradient xlink:href="#B" id="i" x1="1052.2" x2="640.08" y1="2635.5" y2="3475.18"/><linearGradient xlink:href="#M" id="j" x1="1321.17" x2="1388.47" y1="3109.71" y2="3109.71"/><linearGradient xlink:href="#B" id="k" x1="1666.79" x2="1176.84" y1="2076.17" y2="2631.69"/><linearGradient xlink:href="#P" id="l" x1="-7020.3" x2="-6561.82" y1="-10448.82" y2="-9691.56"/><linearGradient xlink:href="#M" id="m" x1="754.87" x2="875.31" y1="2037.05" y2="2037.05"/><linearGradient xlink:href="#M" id="n" x1="919.063" x2="837.377" y1="1887.993" y2="2160.7"/><linearGradient xlink:href="#B" id="o" x1="815.297" x2="1007.474" y1="1985.054" y2="1913.545"/><linearGradient xlink:href="#M" id="p" x1="746.147" x2="825.927" y1="2144.232" y2="1963.813"/><linearGradient xlink:href="#P" id="q" x1="-6942.91" x2="-6484.44" y1="-10495.66" y2="-9738.4"/><linearGradient xlink:href="#u" id="r" x1="-4356.539" x2="-3069.745" y1="6494.423" y2="5459.007"><stop offset="0" stop-color="#e1473d"/><stop offset="1" stop-color="#e9605a"/></linearGradient><linearGradient xlink:href="#r" id="s" x1="-4364.495" x2="-3077.707" y1="6484.531" y2="5449.102"/><linearGradient xlink:href="#M" id="t" x1="1355.49" x2="1149.43" y1="1720.57" y2="2256.32"/><linearGradient id="u" gradientUnits="userSpaceOnUse"/></defs><g style="isolation:isolate"><path d="M0 0h3710v3710H0z" class="AF"/><path fill="url(#A)" d="M2940.82 2861.15c-58.05 60.25-113 99.1-156.37 129.8-510.12 360.83-1113.73 255.65-1242 230-189.45-37.95-555.62-111.29-820.36-418.2C321.57 2338.41 383.93 1606.87 694.61 1124c56.82-88.33 357-578.59 967.11-657.21C2031 419.17 2461.36 515.13 2773 772.57c654.3 540.37 607.73 1632.02 167.82 2088.58z"/><path d="M3238.92 1583.71c2.44-10.4-12.18-17.31-21.14-10-90.93 73.74-309.43 294.57-255 680.48 68.32 484.18-48.48 660.85-193.87 768.62 0 0 199.67-50.68 325.29-230 308.45-440.16 101.3-1024.25 144.72-1209.1z" class="AH"/><path d="M3169.72 1734.94c-11.38 53.9-21.52 108-29.35 162.27q-12.26 81.4-18.71 163.26c-4 54.55-6.89 109.16-7 163.8-.45 54.63 1.82 109.21 4.33 164 2.14 54.78 4.67 109.95.66 165.51s-15.62 111.39-38.78 163.83c-5.79 13.06-11.88 26.09-18.8 38.68-6.65 12.7-13.95 25.16-21.51 37.49a592.16 592.16 0 0 1-51.58 71c-38.43 45.07-84.77 85-135.83 118.87-5.37 3.56-13.07 2.69-17.2-1.95s-3.14-11.05 2-14.66c12.15-8.53 24.17-17.17 35.7-26.25 5.85-4.46 11.46-9.13 17.17-13.71 5.5-4.76 11.22-9.34 16.54-14.24a588.69 588.69 0 0 0 60-61.65c36.65-43.34 66-91.62 88.22-141.68a479 479 0 0 0 25.72-77.21 527.38 527.38 0 0 0 12.4-80c4.37-53.93 2.4-108.56.71-163.35s-2.79-109.88-1.35-164.92q1-41.26 3.63-82.49l3-41.18q1.85-20.58 4-41.12 8.87-82.15 23.57-163.65c10.12-54.26 21.91-108.26 36.08-161.79a3.33 3.33 0 0 1 3.94-2.13 2.89 2.89 0 0 1 2.44 3.27z" class="AF" style="mix-blend-mode:soft-light"/><path d="M1466.82 2901.63s58.77-230.58-116.26-475.27c-162.39-227-570.21-753.79-619.43-1037-2.18-12.54-22-9.82-25.86 3.59-41.33 143.78-115.67 505.57 41.86 876.38 203.14 478.21 719.69 632.3 719.69 632.3z" class="AH"/><path d="M747 1651.11s-.7 5.46-1.23 15.77-.84 25.45-.26 44.68 2.36 42.55 5.94 69.08a864.4 864.4 0 0 0 48 189.71 1037.52 1037.52 0 0 0 47.8 108.35 1143.44 1143.44 0 0 0 64 109.26l18.31 26.83 19.23 26.42 39.77 52.58 81.47 103.05 81.19 98 145.59 172.83c21 25.65 39.35 49.88 54.94 71.88a625.81 625.81 0 0 1 37.43 59 376.54 376.54 0 0 1 19.34 40.66c1.94 4.82 3.2 8.61 4.15 11.12l1.4 3.82a1.72 1.72 0 0 1-3.21 1.24v-.08l-1.51-3.74c-1-2.44-2.39-6.14-4.46-10.83a405.78 405.78 0 0 0-20.36-39.54 622.48 622.48 0 0 0-38.49-57.5c-15.92-21.51-35-44.93-56.19-70.26-42.43-50.56-94-108-147.93-170.68l-82-97.74c-27.58-33.61-54.92-68.19-81.92-103.17l-39.94-52.72-19.31-26.81q-9.21-13.65-18.36-27.23a1066.71 1066.71 0 0 1-63.86-111 949.19 949.19 0 0 1-46.67-110.28 895.51 895.51 0 0 1-29.39-103.13 760 760 0 0 1-14.4-89.4 696.69 696.69 0 0 1-3.56-69.67c0-19.34 1.11-34.5 2.1-44.8s1.95-15.75 1.95-15.75a.22.22 0 0 1 .25-.17.2.2 0 0 1 .19.22z" class="AF" opacity=".45"/><path fill="#bdd0fb" d="M1155.42 841.52c5.53-14.76 27.21-12.29 29.21 3.34 19.34 151.11 82.46 545.76 235.6 772.8 249.34 369.68 369.28 928 138.45 1174 0 .03-1005.68-342.42-403.26-1950.14z"/><path d="m1157.89 1053.35-.08 4.63c-.08 3.05.06 7.39.27 13.33.28 11.81 1 29.14 2.1 51.18l5 79.45 8.46 102.91 12.57 121.5c4.81 43.08 10.88 88.39 17.27 135.23l22.4 144 6.34 36.82 6.89 36.94c4.44 24.72 9.65 49.39 14.6 74.11l15.88 73.82q8.42 36.71 17.08 73 4.56 18 9.1 35.91l9.24 35.5 9.62 34.94 4.76 17.28q2.53 8.57 5.06 17.06l10 33.66 5 16.58q2.67 8.19 5.3 16.3l10.35 32.1 5.1 15.76 5.39 15.43 10.56 30.23 5.16 14.78q2.76 7.27 5.46 14.41l21.17 55 20.83 50.07 20 44.63q4.76 10.48 9.21 20.29l9.21 18.57 16.23 32.72c2.37 5 5 9.52 7.3 13.83l6.59 12.12 10.39 19.12 8.65 15.93v.06a1.72 1.72 0 0 1-3 1.67l-9-15.75-10.85-18.93-6.86-12c-2.43-4.28-5.1-8.79-7.56-13.74l-16.84-32.54-9.56-18.47-9.59-20.19-20.8-44.47-21.43-50c-7.32-17.49-14.26-36-21.82-55l-5.63-14.41q-2.65-7.32-5.33-14.77l-10.92-30.23c-14.61-40.92-28.63-84.57-42.11-130l-5.13-17.09q-2.42-8.62-4.84-17.33l-9.76-35c-3.39-11.72-6.28-23.64-9.39-35.57l-9.27-36q-8.81-36.27-17.37-73.1-4-18.45-8-37l-7.77-37.09-14.41-74.32q-3.41-18.57-6.79-37-3.13-18.53-6.25-36.92c-8.37-49-15.42-97.49-22-144.39l-16.19-135.61-11.49-121.8c-6.05-75.54-9.13-138.62-10.76-182.79l-1.29-51.3c-.11-5.88 0-10.59 0-13.67s.16-4.64.16-4.64a1.71 1.71 0 0 1 3.42.09z" class="AF" opacity=".43"/><path fill="url(#B)" d="m2845.05 879.32-1303.53 29.53a135.07 135.07 0 0 0-132 131.23l-53.41 1892.05a99.61 99.61 0 0 0 100 102.42l1494.62-6.69a94.57 94.57 0 0 0 94.11-96.7l-43.1-1902a153.31 153.31 0 0 0-156.69-149.84z"/><path fill="url(#C)" d="M2841.18 885.5c-177.46 28.17-787.9 116.7-1294.87 89.32a41.18 41.18 0 0 0-43.46 39.83L1445 2915.23a47.38 47.38 0 0 0 45.64 48.82c213.14 7.77 1090.84 36.61 1402.77-3.23a37.54 37.54 0 0 0 32.75-37.91l-33.48-1994.14a44.53 44.53 0 0 0-51.5-43.27z"/><path d="M2823.23 935.18c-170.78 27.11-758.23 112.3-1246.12 86a39.63 39.63 0 0 0-41.82 38.33l-55.7 1829a45.62 45.62 0 0 0 43.92 47c205.12 7.48 1049.77 35.22 1350-3.11a36.13 36.13 0 0 0 31.51-36.48l-32.23-1919.11a42.84 42.84 0 0 0-49.56-41.63z" class="AH"/><path d="m2717.4 1121.25-9.32 392.06a24.9 24.9 0 0 1-23.62 24.3c-72.49 3.69-298.38 14.32-426.15 10.56a27.82 27.82 0 0 1-26.95-26.28c-4.1-73.4-14.26-287.05.45-376.8a31.38 31.38 0 0 1 29.21-26.2l428.39-24.71a26.48 26.48 0 0 1 27.99 27.07z" class="AF" opacity=".78"/><circle cx="2473.88" cy="1266.86" r="84.21" fill="url(#D)" transform="rotate(-88.04 2473.721 1266.906)"/><path fill="url(#E)" d="m2607.36 1511.15-268.23 6.08a20.77 20.77 0 0 1-18.16-31.62c22-36.17 68.45-89.62 151.06-89.13 79.62.48 127.85 46.72 152.33 80.11a21.71 21.71 0 0 1-17 34.56z"/><path d="M1644 1179.68c-7.56.17-13.7-5.61-13.65-12.84s6.26-13.4 13.81-13.7l473-19.16c7.55-.3 11.81 5.32 9.46 12.51l-3.06 9.36c-2.35 7.18-10.45 13.2-18 13.37ZM2118.86 1207c7.55-.31 11.81 5.32 9.46 12.5l-3.06 9.36c-2.35 7.18-10.45 13.2-18 13.37l-461.58 10.46a13 13 0 0 1-13.65-12.84c0-7.23 6.27-13.39 13.82-13.7ZM2120.54 1281.07c7.55-.31 11.81 5.32 9.46 12.5l-3.06 9.37c-2.35 7.18-10.45 13.19-18 13.37l-461.58 10.45c-7.55.17-13.7-5.6-13.65-12.83s6.27-13.4 13.81-13.71Z" class="AG AF"/><path d="M1812.74 1352.93c-36.33-2-104.26-1.71-141.65-1.39a33.88 33.88 0 0 0-32.85 26.67c-6.54 30.07-15.32 82.22-12.82 137.21a30.1 30.1 0 0 0 31 28.77l137.91-4.61a33.15 33.15 0 0 0 31.94-30.78l9.18-130a24.12 24.12 0 0 0-22.71-25.87z" class="AF AG"/><path d="M1898.61 1417c-7.55.17-13.78-5.6-13.84-12.83s6.06-13.51 13.6-14l219.83-12.92c7.55-.44 12.8 5.31 11.67 12.78l-1.23 8.17a17 17 0 0 1-15.79 13.9ZM2120.7 1463.29c7.56-.17 12.59 5.77 11.19 13.2l-1.53 8.11a17 17 0 0 1-16.28 13.31l-214.28-3c-7.55-.11-13.56-6.1-13.36-13.33s6.55-13.28 14.11-13.44ZM1609.79 1685c-7.55.17-13.48-5.61-13.16-12.84s6.74-13.35 14.3-13.58l1104.27-33.73c7.55-.23 10 4.5 5.42 10.52l-10.61 14c-4.57 6-14.49 11.07-22 11.24ZM2716.85 1697.88c7.56-.23 10 4.5 5.42 10.52l-10.6 14c-4.57 6-14.5 11.08-22.05 11.25L1611.44 1758c-7.55.18-13.47-5.61-13.16-12.84s6.75-13.35 14.3-13.58Z" class="AG AF"/><path d="M2723.05 1819.72c-26.53-1.43-76.14-1.25-103.45-1a24.74 24.74 0 0 0-24 19.47c-4.78 22-11.19 60-9.36 100.22a22 22 0 0 0 22.65 21l100.72-3.36a24.2 24.2 0 0 0 23.32-22.48l6.71-95a17.63 17.63 0 0 0-16.59-18.85z" class="AF" opacity=".25"/><path d="M2539.18 1862.76c7.54-.49 12.93 5.25 12 12.74l-2.46 19.35a16.49 16.49 0 0 1-15.46 13.94l-247.74 5.62a13.57 13.57 0 0 1-13.87-13.43l-.08-7.21a14.71 14.71 0 0 1 13.57-14.62Z" class="AG AF"/><path d="M2174.25 1832.15c-26.53-1.42-76.14-1.24-103.45-1a24.75 24.75 0 0 0-24 19.47c-4.77 22-11.18 60.05-9.35 100.21a22 22 0 0 0 22.65 21l100.71-3.37a24.19 24.19 0 0 0 23.33-22.48l6.71-95a17.63 17.63 0 0 0-16.6-18.83z" class="AF" opacity=".25"/><path d="M1990.37 1875.19c7.54-.49 12.93 5.25 12 12.74l-2.46 19.36a16.51 16.51 0 0 1-15.47 13.94l-247.73 5.61a13.58 13.58 0 0 1-13.88-13.43l-.07-7.21a14.72 14.72 0 0 1 13.57-14.62ZM1679.86 2171.53c-7.55.17-13.48-5.61-13.18-12.85s6.72-13.34 14.27-13.58l1072.59-33c7.55-.23 10.06 4.55 5.57 10.63l-10.11 13.71c-4.49 6.08-14.34 11.19-21.89 11.36ZM2755.19 2185.11c7.55-.23 10.06 4.55 5.57 10.63l-10.12 13.71c-4.49 6.08-14.34 11.2-21.9 11.37l-1047.22 23.72c-7.55.17-13.49-5.61-13.19-12.84s6.73-13.35 14.28-13.58ZM2756.87 2259.19c7.55-.24 10.06 4.55 5.57 10.63l-10.12 13.71c-4.49 6.08-14.35 11.19-21.9 11.36l-1047.22 23.73c-7.56.17-13.49-5.61-13.19-12.85s6.72-13.35 14.28-13.58Z" class="AG AF"/><path fill="url(#F)" d="m2108.15 823.92 147.61-16.47 9.35-136a57.5 57.5 0 0 0-42.2-59.51c-29-7.85-70-7.57-116.31 26.25-90.89 66.38 1.55 185.73 1.55 185.73zm28.26-113.75a36.88 36.88 0 1 1 37.71 36 36.88 36.88 0 0 1-37.71-36z"/><path d="M2239.36 750.71a3.58 3.58 0 0 1-3.32-3.81l1.49-21.65a3.57 3.57 0 0 1 7.13.49l-1.49 21.65a3.57 3.57 0 0 1-3.48 3.32Zm2.92-42.43a3.58 3.58 0 0 1-3.32-3.81l1.14-16.47a47.72 47.72 0 0 0-35-49.31 103.59 103.59 0 0 0-50.65-.93 3.57 3.57 0 0 1-1.59-7 110.58 110.58 0 0 1 54.11 1 54.91 54.91 0 0 1 40.21 56.7l-1.09 16.54a3.58 3.58 0 0 1-3.48 3.33Z" class="AH"/><path fill="url(#G)" d="m2459.6 890.55-1.54-68.21a41.63 41.63 0 0 0-44-40.62l-469.9 26.76A40.5 40.5 0 0 0 1906 847.4l-2.43 65.6z"/><path d="m2282.35 810.42 20.22-.46a3.571 3.571 0 0 0-.16-7.14l-20.22.46a3.571 3.571 0 1 0 .16 7.14zm151.31 59.29a3.57 3.57 0 0 0 3.49-3.65l-.62-27.6a38.72 38.72 0 0 0-39.53-37.78l-74.36 1.68a3.571 3.571 0 0 0 .17 7.14l74.35-1.69a31.58 31.58 0 0 1 32.24 30.81l.62 27.6a3.58 3.58 0 0 0 3.64 3.49z" class="AH"/><path fill="url(#H)" d="m2606.38 862.24-822.33 18.61a60.79 60.79 0 0 0-58.75 51.77l-.61 4a52.22 52.22 0 0 0 52.82 59.94l843.67-19.12a33.94 33.94 0 0 0 33.09-36.33l-2.67-37.72a44.34 44.34 0 0 0-45.22-41.15z"/><path fill="url(#I)" d="M1947.21 2508.1 1837.62 2242a13.73 13.73 0 0 0-12.7-8.51h-67.4a13.73 13.73 0 0 0-12.48 19.46l127.06 277.23a13.75 13.75 0 0 0 15.47 7.69l49.92-11.09a13.74 13.74 0 0 0 9.72-18.68z"/><path fill="url(#J)" d="M2083.59 2821.73h32.27v349.01h-32.27z"/><path fill="url(#K)" d="M1961.77 3156.45h275.91a3.37 3.37 0 0 1 3.37 3.37v17.63H1958.4v-17.63a3.37 3.37 0 0 1 3.37-3.37z"/><rect width="355.39" height="100.79" x="1927.61" y="2743.53" fill="url(#L)" rx="34.71"/><path fill="url(#M)" d="M1861.47 2589s-48 7.43-101.87 43.48a26.88 26.88 0 0 0-11.86 25.68c6.46 51.14 33 216.67 120.54 378.33a40.72 40.72 0 0 1 3.9 27.93l-15.18 70.79-28.2 26.45h72.64l48.37-130.89-20.68-6.54a39.13 39.13 0 0 1-27.33-36.64l-2.43-140.41c2.07-62.55-38.35-105.71-38.35-105.71l116-5.64z"/><path fill="url(#N)" d="M1800.41 3174.42c-6.62 8.66 71.2 20.09 110.52 1.15 0 0 54.5-94.82 54.5-143.64 0 0-4.33-10-36.33-7.7 0 0-18.3 112.27-37.62 124.85s-54.06 1.27-54.06 1.27-27.25 11.3-37.01 24.07z"/><path fill="url(#O)" d="M1962.32 2743.53c-.62-1.07-124.9-15-124.9-15s4.06 37.79-8.65 89.81-195.19 277.41-195.19 277.41l19.13 60.65c-59.16 20.61-117.35 23.9-174.61 10.51l118.58-71.16s111-378.19 179-445.65l124.53-43.1z"/><path fill="url(#P)" d="M2241.05 2523.47s71.61 106.51 77.49 155.1-19.62 68.32-94.75 71.58-275.72 3.2-275.72 3.2L1776.88 2607l157.19-57.1c32.43-12.59 306.98-26.43 306.98-26.43z"/><path fill="url(#Q)" d="M1645.48 3136s20.6 19.95 6.69 42.15c0 0-163.19 28.92-207.49 15.8 0 0 9.2-21 59.09-44.9l-3.68 2.83a6 6 0 0 0 3.93 10.69c32.88-1.85 100.91-7.87 141.46-26.57z"/><path fill="url(#R)" d="M2047.4 2509.37S1964 2430 1923 2377.38a111.6 111.6 0 0 1-18.93-100.38c18.74-63.14 52-128.53 55.08-138.71 4.66-15.6 98.16-14.95 98.16-14.95s184 119.41 256.27 321.68l-81.18 25.28s-48-80.6-95.51-131.84c0 0 82.13 108.5 85 152.92Z"/><path fill="url(#S)" d="M1947.84 2051.07c1 3.24 25.38 84.14 27.29 85.82s53.52 4.46 77.81-12.15l-41.21-86.27Z"/><path fill="url(#T)" d="M1917.69 1932.38s-28.94 31.63-29.54 94.7 28.61 78.65 53 71.43 58.4-23.43 79.24-73.55-64.29-131.96-102.7-92.58z"/><path fill="url(#U)" d="M1983.36 2008.44s-7.75-88.31-75.44-58.33l-10.75 18.33s-44-30.75-12.69-69.42 100-48.55 142.25-1.87 48.38 86.55 31.68 125.83-42.11 15.09-42.11 15.09 4.41-31.59-8-41.74-19.78 12.35-19.78 12.35Z"/><path fill="url(#V)" d="M1994.78 2013.43s-4.24-45.37 21.16-38.19 1.73 42.92-8.18 55.52Z"/><path fill="url(#W)" d="m1877.52 2515.27 61.26-59.05 84.76 35.8s84.36 13.07 132.65 0l48.28-13.07 109.11-34 17.14 48.43a29.17 29.17 0 0 1-10.66 33.51c-9.43 6.7-20.5 14.08-27.55 17.16-14.37 6.29-354.22-4.35-354.22-4.35Z"/><path fill="url(#X)" d="M2025.38 1908.12c-12.7-4.87-13.93-22.37-2.59-29.89 36.62-24.25 99.63-45.57 163.64 27.27 72.1 82 112.44 121.09 135.28 120.72 15-.25 23.75 16.71 13.87 28-7.3 8.35-19.79 15.85-40.53 20.35-160.05 34.73-195.14-137.9-269.67-166.45z"/><path fill="url(#Y)" d="M920.45 3196.42a13.5 13.5 0 0 1-5.14-1 12.17 12.17 0 0 1-6.81-16.28l273-604.19a13.27 13.27 0 0 1 17.1-6.48 12.17 12.17 0 0 1 6.82 16.28l-273 604.19a13.06 13.06 0 0 1-11.97 7.48z"/><path fill="url(#Z)" d="M1227.94 3196.42a13.06 13.06 0 0 1-12-7.5L943 2584.73a12.17 12.17 0 0 1 6.81-16.28 13.26 13.26 0 0 1 17.1 6.48l273 604.19a12.17 12.17 0 0 1-6.81 16.28 13.46 13.46 0 0 1-5.16 1.02z"/><path fill="url(#a)" d="M2043.39 3196.42a13.45 13.45 0 0 1-5.13-1 12.17 12.17 0 0 1-6.82-16.28l273-604.19a13.27 13.27 0 0 1 17.1-6.48 12.17 12.17 0 0 1 6.81 16.28l-272.95 604.19a13.06 13.06 0 0 1-12.01 7.48z"/><path fill="url(#b)" d="M2350.89 3196.42a13.06 13.06 0 0 1-12-7.5l-273-604.19a12.17 12.17 0 0 1 6.81-16.28 13.26 13.26 0 0 1 17.1 6.48l272.95 604.19a12.16 12.16 0 0 1-6.81 16.28 13.45 13.45 0 0 1-5.05 1.02z"/><path fill="url(#c)" d="M2438.24 2556.09a12.58 12.58 0 0 0-3.3-11.36 16.61 16.61 0 0 0-12.09-5H838.48a18.75 18.75 0 0 0-15.19 7.3 14.15 14.15 0 0 0-1.18 15.16l17.17 32.61c3.93 7.46 12.45 12.24 21.82 12.24H2412c8.72 0 16.22-5.42 17.87-12.93Z"/><g class="AH"><path d="M640.35 2766.83c-9.57 14.16-47.61 334.85-53.56 453.29a14 14 0 0 0 14 14.69 14 14 0 0 0 13.87-11.88l69.6-445.93zm305.87 0c9.57 14.16 47.61 334.85 53.56 453.29a14 14 0 0 1-14 14.69 14 14 0 0 1-13.87-11.88L902.31 2777z"/><path d="M582.81 2741.8v3.5c-.23 25.16 21.44 45.79 48.58 46.25L953 2797c26.75.45 49-18.88 50.34-43.65l.17-3.2c1.35-25.83-20.58-47.59-48.48-48.09l-321.76-5.77c-27.55-.46-50.27 19.98-50.46 45.51z"/></g><path fill="url(#d)" d="M1127.51 3168.63c-51.08 0-73.68-4.38-83.79-8.38a19.39 19.39 0 0 0 18.88 15h180.71a8.78 8.78 0 0 0 8.47-11.1c-20.6 1.67-64.35 4.48-124.27 4.48z"/><path fill="url(#e)" d="M1251.78 3164.16a8.38 8.38 0 0 0-1.48-3.07c-13.76-17.58-41.41-45.18-79-44.65-55.1.78-74.32 6.76-117.14.34l-10.1 33.48a19.23 19.23 0 0 0-.31 10c10.11 4 32.71 8.38 83.79 8.38 59.89-.01 103.64-2.82 124.24-4.48z"/><path fill="url(#f)" d="m1066.53 3080.69-12.4 42.18s27.47 12.5 51.64 2.46l4.74-36.53Z"/><path fill="url(#g)" d="M1441.08 3142.07c-39.82 32-60.17 42.75-70.54 46a19.34 19.34 0 0 0 24.07-.18l140.87-113.18a8.76 8.76 0 0 0-.31-13.92c-15.03 14.21-47.38 43.75-94.09 81.28z"/><path fill="url(#h)" d="M1535.17 3060.77a8.4 8.4 0 0 0-3.07-1.46c-21.69-5-60.45-9.11-89.44 14.86-42.48 35.12-53.73 51.79-91.11 73.63l13 32.31a19 19 0 0 0 6 7.94c10.37-3.23 30.72-14 70.54-46 46.7-37.51 79.05-67.05 94.08-81.28z"/><path fill="url(#i)" d="M801.27 2600.19s305.82 25 368.56 54.51-51.2 443.47-51.2 443.47-17.08 8.22-55.08-3.6c0 0 39-305.46 10-371.7l-331.13-54.16Z"/><path fill="url(#j)" d="M1321.16 3089.66c2.84 2.59 30.39 58.14 30.39 58.14s30.67-6.63 36.92-26l-27.59-50.14Z"/><path fill="url(#k)" d="M617.07 2597.64s-10 24-9.56 55.85c.56 44.07 36 79.83 80 82l361.55 16.51a17.33 17.33 0 0 1 16 13c8.5 32.86 50 133.77 253 335.14a16.37 16.37 0 0 0 20.25 2.2l28.89-18.25a6.64 6.64 0 0 0 2.19-9l-210.5-359.47a81.53 81.53 0 0 0-49.5-36.71l-308.14-78.77Z"/><path fill="url(#l)" d="M616.09 2596.58s-3.58-179.19 32.24-347.83A272.32 272.32 0 0 1 746 2091.32l16.73-13.18 83.79 34 43.06 74.4c23.7 47.41 17.88 150.37 0 200.26-29.9 83.43-53.81 169.89-64 212.36-.02.04-138.79 18.37-209.49-2.58z"/><path fill="url(#m)" d="m820.33 1944.6-65.46 151.87s20.94 47.13 94.26 28.8l26.18-104.73Z"/><path fill="url(#n)" d="M950.05 1875.34c.79 2.12 2.52 151.74 2.52 151.74l-85.45-.82-22.71-141.57s92.43-44.86 105.64-9.35z"/><path fill="url(#o)" d="m869.47 1911.92 6.12 75.45a10.79 10.79 0 0 0 .62 2.81c2.07 5.57 10.58 24.22 29.13 14.35 16.83-9 32.32-16.87 44.43-15.85a10.55 10.55 0 0 1 9.69 10.41c.15 13.59-.07 44.23-4.32 70.82a10.54 10.54 0 0 1-11.2 8.8c-16.42-1.16-51-4.59-78.16-13.86a10.57 10.57 0 0 1-7-8.21c-3.22-18.69-13.22-75.45-18.45-90.83-4.92-14.44-25-19.39-33.6-20.86a10.43 10.43 0 0 1-6.88-4.45c-5.64-8.38-15.26-28.5 9.58-43a10.59 10.59 0 0 0 3.66-14.8c-6.34-10.17-11.64-26.62 7-40.36 19-14 37.1-6.15 47.54 1.12a10.57 10.57 0 0 0 13.51-1.29c2.09-2 5.1-3.23 9.37-1.69A10.43 10.43 0 0 0 904 1833c2.8-11.42 10.66-24.7 32-25.62 37.85-1.64 50.73 37.92 46.23 63.7s-45.66 25.24-67.9 17.54c-16.91-5.86-34.25 7.86-41.58 14.77a10.5 10.5 0 0 0-3.28 8.53z"/><path fill="url(#p)" d="M842.78 1993.26s5.92-45.26-11.72-52.26-39.33 3.32-27.72 32.68c14.44 36.55 39.44 19.58 39.44 19.58z"/><path fill="url(#q)" d="M1022 2452.66c-215.79 67.74-204.32-236-205.71-238.12-85.55-130.73-133.59 43.48-125.3 68 75.88 274.7 267.16 261.1 341.69 207.14-9.27-14.4-11.39-27.11-10.68-37.02z"/><path fill="url(#r)" d="M856.59 2405.8a5.45 5.45 0 0 1-3-2.27c-32.7-51-41.93-121.75-43.91-172.18a5.49 5.49 0 1 1 11-.43c1.58 40.17 9.16 115.23 42.18 166.68a5.49 5.49 0 0 1-6.25 8.2Z"/><path fill="url(#s)" d="M796.33 2474.82a5.43 5.43 0 0 1-1.9-1c-49.32-41.33-86.48-106.27-110.44-193a5.49 5.49 0 0 1 10.58-2.92c23.36 84.57 59.33 147.66 106.91 187.53a5.49 5.49 0 0 1-5.15 9.45Z"/><path fill="url(#t)" d="M1149 2389.24s-3.51 5.59-28.77 25.17-50.7 30.87-31.39 4 9.92-40.79-12.13-11.81-37.8 40.18-37.8 40.18q-8.7 3.33-16.94 5.91c-.72 9.91 1.4 22.62 10.68 37.06 8.74-2.9 13.68-5 13.68-5s66.83-12.16 81.14-40.62a331.06 331.06 0 0 0 21.53-54.89z"/><path d="M1637.28 2247.26s-553.39-273.43-372.41-474.75 518.38-120.85 535.48 91-393.58 162.22-163.07 383.75z" class="AF"/><path d="M1311.68 1830.09h244.23a5.58 5.58 0 0 0 0-11.16h-244.23a5.58 5.58 0 0 0 0 11.16zm316.75 0h72.47a5.58 5.58 0 0 0 0-11.16h-72.47a5.58 5.58 0 0 0 0 11.16zm-324.98 49.44h91.71a5.58 5.58 0 0 0 0-11.16h-91.71a5.58 5.58 0 0 0 0 11.16zm226.27 0h163a5.58 5.58 0 0 0 0-11.16h-163a5.58 5.58 0 0 0 0 11.16zm-234.5 49.47H1539a5.58 5.58 0 0 0 0-11.16h-243.78a5.58 5.58 0 1 0 0 11.16zm304.83 0h84.39a5.58 5.58 0 0 0 0-11.16h-84.39a5.58 5.58 0 0 0 0 11.16z" class="AH"/></g></svg>