<svg xmlns="http://www.w3.org/2000/svg" xmlns:xlink="http://www.w3.org/1999/xlink" viewBox="0 0 3710 3710"><style>.E{mix-blend-mode:soft-light}</style><defs><linearGradient xlink:href="#w" id="A" x1="3492.71" x2="1410.72" y1="3292.41" y2="1470.68"><stop offset="0" stop-color="#dae3fe"/><stop offset="1" stop-color="#e9effd"/></linearGradient><linearGradient xlink:href="#w" id="B" x1="3845.33" x2="1507.05" y1="6336.71" y2="-1565.05"><stop offset="0" stop-color="#4f52ff"/><stop offset="1" stop-color="#4042e2"/></linearGradient><linearGradient xlink:href="#B" id="C" x1="2228.94" x2="-81.66" y1="4728.53" y2="-3079.65"/><linearGradient xlink:href="#w" id="D" x1="1593.69" x2="1626.25" y1="1929.93" y2="1918.64"><stop offset="0" stop-color="#febbba"/><stop offset="1" stop-color="#ff928e"/></linearGradient><linearGradient xlink:href="#w" id="E" x1="1825.47" x2="2299.68" y1="1990.6" y2="1473.69"><stop offset="0" stop-color="#09005d"/><stop offset="1" stop-color="#1a0f91"/></linearGradient><linearGradient xlink:href="#E" id="F" x1="2041.95" x2="2516.15" y1="2189.18" y2="1672.28"/><linearGradient xlink:href="#D" id="G" x1="2286.11" x2="2237.64" y1="1629.84" y2="1484.45"/><linearGradient xlink:href="#D" id="H" x1="2149.53" x2="2323.72" y1="1381.3" y2="1457.03"/><linearGradient xlink:href="#E" id="I" x1="5027.63" x2="5235.71" y1="5584.33" y2="5584.33" gradientTransform="matrix(-.69 -.73 -.73 .69 9787.37 1318.79)"/><linearGradient xlink:href="#D" id="J" x1="2138.68" x2="2312.86" y1="1406.27" y2="1482"/><linearGradient xlink:href="#B" id="K" x1="2480.31" x2="2263.83" y1="3244.53" y2="3244.53"/><linearGradient xlink:href="#E" id="L" x1="3002.81" x2="2218.98" y1="3042" y2="3265.41"/><linearGradient xlink:href="#D" id="M" x1="2460.32" x2="2399.35" y1="3142.87" y2="3142.87"/><linearGradient xlink:href="#B" id="N" x1="2911.87" x2="2828.91" y1="3239.86" y2="3239.86"/><linearGradient xlink:href="#E" id="O" x1="2565.84" x2="3054.31" y1="2996.59" y2="3314.67"/><linearGradient xlink:href="#D" id="P" x1="2847.97" x2="2775.1" y1="3092.04" y2="3092.04"/><linearGradient xlink:href="#E" id="Q" x1="2858.25" x2="1746.28" y1="3199.04" y2="1661.68"/><linearGradient xlink:href="#w" id="R" x1="2477.36" x2="2504.33" y1="2182.86" y2="2378.39"><stop offset="0" stop-color="#e1473d"/><stop offset="1" stop-color="#e9605a"/></linearGradient><linearGradient xlink:href="#R" id="S" x1="2386.181" x2="2373.945" y1="2265.867" y2="2193.959"/><linearGradient xlink:href="#R" id="T" x1="2368.51" x2="2409.956" y1="2157.826" y2="2363.074"/><linearGradient xlink:href="#R" id="U" x1="2586.503" x2="2574.257" y1="2231.776" y2="2159.87"/><linearGradient xlink:href="#R" id="V" x1="2567.499" x2="2608.946" y1="2117.656" y2="2322.914"/><linearGradient xlink:href="#w" id="W" x1="2471.854" x2="2470.636" y1="2027.388" y2="2177.489"><stop offset="0" stop-color="#ff928e"/><stop offset="1" stop-color="#fe7062"/></linearGradient><linearGradient xlink:href="#W" id="X" x1="2498.18" x2="2495.93" y1="2570.29" y2="2311.84"/><linearGradient xlink:href="#R" id="Y" x1="2493.73" x2="2518.45" y1="2480.27" y2="2365.66"/><linearGradient xlink:href="#W" id="Z" x1="2469.726" x2="2554.226" y1="2414.435" y2="2403.611"/><linearGradient xlink:href="#D" id="a" x1="2561.45" x2="2396.43" y1="1982.01" y2="2299.35"/><linearGradient xlink:href="#E" id="b" x1="2112.52" x2="2586.72" y1="2253.93" y2="1737.02"/><linearGradient xlink:href="#E" id="c" x1="2457.14" x2="2567.26" y1="1750.91" y2="1317.15"/><linearGradient xlink:href="#E" id="d" x1="1014.05" x2="1156.06" y1="3187.59" y2="3187.59"/><linearGradient xlink:href="#B" id="e" x1="1369.57" x2="852.93" y1="3020.06" y2="3425.72"/><linearGradient xlink:href="#D" id="f" x1="1053.55" x2="1026.42" y1="3025.92" y2="3262.65"/><linearGradient xlink:href="#B" id="g" x1="1461.34" x2="944.71" y1="3136.77" y2="3542.43"/><linearGradient xlink:href="#E" id="h" x1="1230.3" x2="1434.72" y1="3191.2" y2="3191.2"/><linearGradient xlink:href="#D" id="i" x1="1271.003" x2="1258.844" y1="3050.962" y2="3288.95"/><linearGradient xlink:href="#E" id="j" x1="1285.52" x2="832.58" y1="2160.96" y2="3594.5"/><linearGradient xlink:href="#W" id="k" x1="866.33" x2="1380.99" y1="2272.57" y2="1641.04"/><linearGradient xlink:href="#D" id="l" x1="1105.13" x2="1293.91" y1="1578.34" y2="1465.97"/><linearGradient xlink:href="#D" id="m" x1="1311.07" x2="1200.89" y1="1502.6" y2="1340.7"/><linearGradient xlink:href="#E" id="n" x1="1106.89" x2="1262.66" y1="1220.53" y2="1402.97"/><linearGradient xlink:href="#D" id="o" x1="1257.61" x2="1147.48" y1="1538.98" y2="1377.16"/><linearGradient xlink:href="#W" id="p" x1="1118.32" x2="1356.55" y1="1997.46" y2="1671.59"/><linearGradient xlink:href="#D" id="q" x1="1744.05" x2="1347.74" y1="1615.97" y2="1813.12"/><linearGradient xlink:href="#D" id="r" x1="1738.25" x2="1602.69" y1="1566.53" y2="1708.11"/><linearGradient xlink:href="#D" id="s" x1="1745.94" x2="1349.62" y1="1613.64" y2="1810.78"/><linearGradient xlink:href="#D" id="t" x1="1911.55" x2="761.41" y1="1948.14" y2="1740.16"/><linearGradient xlink:href="#R" id="u" x1="1348.03" x2="845.07" y1="1443.72" y2="2214.63"/><linearGradient xlink:href="#R" id="v" x1="1341.05" x2="838.09" y1="1439.17" y2="2210.08"/><linearGradient id="w" gradientUnits="userSpaceOnUse"/></defs><g style="isolation:isolate"><path fill="#fff" d="M0 0h3710v3710H0z"/><path fill="url(#A)" d="M3138.88 2346.3c-269.08 633.57-985.83 988.5-1607.41 892.76-101.14-15.58-378.42-62-623.92-280.92C435 2536.68 333.88 1702.13 715.11 1114 992.58 686 1490 443.3 1962.59 455.43c101.81 2.62 492 18.73 834.83 301.46 50.36 41.52 161.44 140.2 261.54 296.75 235.04 367.61 255.28 879.76 79.92 1292.66z"/><path fill="#bdd0fb" d="M582.94 536.27c-2.6-11 12.94-18.38 22.45-10.67 96.6 78.33 328.7 312.9 270.85 722.83-72.57 514.32 51.5 702 205.94 816.46 0 0-212.09-53.83-345.54-244.26-327.64-467.55-107.58-1088-153.7-1284.36Z"/><path fill="#fff" d="M656.45 696.91c12.08 57.26 22.85 114.69 31.18 172.38q13 86.46 19.86 173.42c4.29 58 7.32 116 7.5 174 .47 58-1.94 116-4.6 174.22-2.28 58.19-5 116.8-.7 175.82s16.59 118.32 41.19 174c6.15 13.88 12.62 27.72 20 41.09 7.07 13.5 14.82 26.72 22.85 39.83a627.85 627.85 0 0 0 54.8 75.37c40.82 47.87 90 90.33 144.28 126.27 5.71 3.78 13.89 2.86 18.27-2.07s3.34-11.74-2.1-15.57c-12.9-9.06-25.67-18.24-37.92-27.88-6.22-4.74-12.18-9.7-18.24-14.56-5.85-5.06-11.92-9.93-17.58-15.13a625.18 625.18 0 0 1-63.72-65.49c-38.93-46-70.1-97.32-93.71-150.5a508.68 508.68 0 0 1-27.31-82 559.43 559.43 0 0 1-13.18-84.94c-4.65-57.29-2.55-115.31-.75-173.51s3-116.72 1.42-175.19q-1-43.83-3.85-87.62c-.84-14.59-2-29.17-3.16-43.75q-2-21.85-4.25-43.67-9.4-87.27-25-173.84c-10.76-57.64-23.28-115-38.34-171.86a3.53 3.53 0 0 0-4.18-2.27 3.06 3.06 0 0 0-2.76 3.45z" class="E"/><path fill="#91b3fa" d="M833.17 1767.33a24.32 24.32 0 0 1-39.8-6.77c-39.31-86.8-128.28-342.25 18.63-636.56 124.1-248.51 167.76-395.06 183-463 3.22-14.36 22.9-16.26 28.84-2.8 65.49 148.57 238.52 653.8-190.67 1109.13z"/><path fill="#fff" d="M811.66 1758.17a7 7 0 0 1-1.3.11 6.75 6.75 0 0 1-6.64-6.85c.07-4.22 8.28-426.1 165.19-779.44a6.74 6.74 0 1 1 12.33 5.47c-155.77 350.77-164 770-164 774.18a6.73 6.73 0 0 1-5.58 6.53z" class="E"/><path fill="url(#B)" d="M2512.36 1115.66c-37.56-66-66.46-154.71-7.43-221.12 106.63-119.95 319.87-146.61 373.19 40 22.05 77.19 6.48 137.19-19.37 181-23.94 40.58 5.57 91.73 52.69 91.73h339.87v453.47c0 40.94-46 64.38-79.65 41-228-158.25-346.88 28.41-347.13 112.41-.29 93.3 40.26 313.22 186.87 306.55 67-3 122.87-25.57 163.78-49.14 33.88-19.52 76.13 4.25 76.13 43.35v422.69h-351.73c-41.76 0-66.66 46.12-43.95 81.16 26.1 40.26 47.95 98.63 49.14 181.71 3 211.46-319.87 173.26-399.84 106.62-57.12-47.6-59.47-200.23-15-294.62 16.43-34.87-10.59-74.87-49.15-74.87h-342.36v-462.51c0-33.72-36.62-54.45-65.61-37.23-58.92 35-149.93 78.92-240.94 82.87-153.27 6.67-173.26-166.6-179.93-299.88-5.88-117.72 218.54-308.27 395.69-192.1 29 19 88.61 46.89 88.61 12.18v-433.67h363.31c47.05 0 76.09-50.71 52.81-91.6z"/><path fill="#fcfcfc" d="M2700.72 2966.49a443.16 443.16 0 0 1-55.38-3.57c-61-7.69-116.47-27.1-144.73-50.65-61.64-51.37-60.75-209.36-16.78-302.67 6.61-14 5.53-29.73-2.95-43.1a47.31 47.31 0 0 0-40.1-22.15h-342.36a6.75 6.75 0 0 1-6.74-6.75v-462.51a36.61 36.61 0 0 0-55.42-31.43c-60.63 36-152.2 79.81-244.09 83.81-70.66 3.14-121.67-31.1-151.45-101.58-25.26-59.78-32.13-137-35.51-204.71-3.22-64.33 56.5-146.56 142-195.54 90.92-52.07 187.18-53 264.13-2.53 26.72 17.53 62.82 32.51 74.55 26.19 1-.53 3.61-2 3.61-8.37v-433.67a6.74 6.74 0 0 1 6.74-6.74h363.32a53.57 53.57 0 0 0 46.8-26.86 54.25 54.25 0 0 0 .15-54.66c-53.66-94.26-55.95-173.43-6.61-228.94 65.18-73.32 168.75-111.29 251.81-92.36 65.07 14.84 112.27 62.77 132.9 135 19.45 68.09 12.71 130.76-20 186.29a54.19 54.19 0 0 0 46.89 81.56h339.8a6.75 6.75 0 0 1 6.75 6.74v453.47a56 56 0 0 1-30.46 50.41 57.67 57.67 0 0 1-59.77-3.83c-113.14-78.53-192.17-66.19-238.55-42-66.66 34.75-97.88 109.4-98 148.91-.22 72.21 23 202.19 87.79 264.31 26.22 25.13 57.1 37 92 35.48 55.44-2.51 109.52-18.74 160.72-48.24a57.33 57.33 0 0 1 57.88-.1 56.32 56.32 0 0 1 28.36 49.29v422.61a6.75 6.75 0 0 1-6.75 6.75h-351.69a45.71 45.71 0 0 0-38.29 70.75c32.28 49.79 49.18 112.12 50.23 185.27.93 65.28-28.84 114.22-86.08 141.54-33.98 16.21-77.07 24.58-124.72 24.58zm-595.55-435.63h335.61a60.72 60.72 0 0 1 51.49 28.42 58 58 0 0 1 3.76 56.07c-45.31 96.15-38.52 243.45 13.21 286.57 53 44.18 213.16 74.21 310.39 27.82 52.89-25.24 79.27-68.7 78.4-129.18-1-70.57-17.18-130.5-48.05-178.13a59.19 59.19 0 0 1 49.6-91.57h345v-415.92a43 43 0 0 0-21.62-37.61 44 44 0 0 0-44.4.1c-53.09 30.59-109.22 47.42-166.84 50-38.62 1.78-73-11.44-102-39.22-67.87-65.06-92.17-199.55-91.95-274.08.13-44.07 32.88-123.1 105.26-160.83 49.67-25.9 133.8-39.48 252.47 42.89a43.65 43.65 0 0 0 45.83 3 42.71 42.71 0 0 0 23.22-38.46V1214h-333.11a67.67 67.67 0 0 1-58.5-101.9c30.8-52.21 37.09-111.34 18.7-175.72-24.63-86.2-80.45-115.84-122.94-125.53C2670.2 792.93 2572 829.2 2510 899c-31.48 35.41-55.6 101.16 8.25 213.31a67.61 67.61 0 0 1-.21 68.11 66.91 66.91 0 0 1-58.46 33.56H2103v426.93c0 12-5.81 17.6-10.69 20.23-25.75 13.91-85.81-25.1-88.35-26.77-72.55-47.59-163.69-46.51-250 3-80 45.83-138.16 124.58-135.24 183.16 3.33 66.5 10 142.29 34.47 200.14 27.74 65.65 73 96.18 138.44 93.34 89.1-3.87 178.49-46.68 237.79-81.93a50.1 50.1 0 0 1 75.8 43z"/><path fill="url(#C)" d="M802.16 2052.55c-40 26.84-92.75 52.93-152.23 58.88-131.7 13.17-184.38-131.7-191-256.82S564.32 1611 663.1 1624.13c46.53 6.2 97.43 35.78 138.27 65.33 33 23.88 79 .4 79-40.32v-449.39h454.64c37.89 0 63-39.12 47.17-73.55-35.67-77.53-75.74-195.34-19.86-246.19 86.85-79 321.44-79 361 39.51 22.13 66.37-7.93 146.22-38.66 203.64-18.54 34.62 6.47 76.41 45.74 76.41h388v416.18c0 44.4-50.21 72-86.42 46.3-167.85-119.13-351.16 6.53-368 146.47-19.76 164.62 85.6 302.91 197.55 289.74 56.85-6.69 122.18-38.84 172.73-68.88 37.12-22.06 84.09 4.43 84.09 47.62v459.69h-446.86c-51.14 0-85.34-53.34-63.18-99.43 26.42-54.92 134.68-122.34 128.17-174.37-13.17-105.36-247.76-131.43-374.12-111.81-96.44 15-48.5 165.83 6.32 286.73 21 46.34-12.46 98.88-63.33 98.88H880.41v-443.21c0-40.23-44.83-63.34-78.25-40.93z"/><path fill="#fcfcfc" d="M2118.42 2543.43h-446.93a76.39 76.39 0 0 1-65-36 75.33 75.33 0 0 1-4.23-73.13c11.35-23.6 37-49.2 61.7-74 34.06-34.06 69.28-69.28 65.86-96.65-2.54-20.27-14.4-38.53-35.27-54.26-47.54-35.86-189.06-73.78-331.13-51.73-19.19 3-32.43 11.66-40.46 26.52-22 40.69-4.06 127.4 51.87 250.76a76.51 76.51 0 0 1-69.46 108.41H880.41a6.74 6.74 0 0 1-6.74-6.74v-443.13a42.15 42.15 0 0 0-22.57-37.77 43.34 43.34 0 0 0-45.18 2.44c-51.65 34.67-103.91 54.85-155.32 60-42.48 4.25-79.62-7-110.48-33.5-23.87-20.49-80.22-83.88-87.89-229.68-3.53-67 27-138.89 79.66-187.5 40.69-37.55 88.85-55.77 132.1-50 40.15 5.35 87.7 27.74 141.34 66.55a43 43 0 0 0 68.34-34.86v-449.41a6.74 6.74 0 0 1 6.74-6.74h454.64a45.1 45.1 0 0 0 41-64c-40-87-75.7-201.72-18.26-254 55-50.09 169.15-70.8 259.77-47.13 58.11 15.17 97.93 47 112.11 89.49 23.06 69.21-8.54 151.84-39.12 209a45.12 45.12 0 0 0 39.8 66.48h388a6.75 6.75 0 0 1 6.75 6.75v416.18a62.81 62.81 0 0 1-34.24 55.93c-20.66 10.67-44.15 9.12-62.83-4.14-71.03-50.51-151.03-60.24-225.03-27.42-71.81 31.82-123.71 98.22-132.23 169.17-10.78 89.79 16.85 180 72.09 235.34 35 35.08 76.87 51.75 118 46.91 57.36-6.75 124.14-40.7 170.06-68a62.3 62.3 0 0 1 94.29 53.42v459.69a6.75 6.75 0 0 1-6.79 6.75zm-669.59-405c88.42 0 195.13 16 253.83 60.28 23.88 18 37.51 39.33 40.51 63.35 4.25 33.92-33.34 71.51-69.7 107.87-24 23.95-48.72 48.73-59.08 70.26a61.93 61.93 0 0 0 3.49 60.11 63 63 0 0 0 53.61 29.66h440.19V2077a48.8 48.8 0 0 0-73.91-41.82c-47 28-115.66 62.75-175.38 69.78-45.23 5.33-91.13-12.71-129.1-50.78-58.1-58.23-87.2-152.67-75.94-246.47 9.07-75.57 64.08-146.18 140.15-179.89 78.59-34.81 163.26-24.61 238.41 28.73 14.49 10.28 32.75 11.46 48.83 3.15a49.38 49.38 0 0 0 26.94-44v-409.39h-381.29a58.62 58.62 0 0 1-51.69-86.31c29.33-54.79 59.77-133.68 38.22-198.33-12.69-38.07-49.17-66.73-102.73-80.71-86.66-22.62-195.28-3.27-247.29 44.06-23.23 21.13-51.33 80.2 21.45 238.38a58.59 58.59 0 0 1-53.3 83.11h-447.9v442.65a56.52 56.52 0 0 1-89.73 45.78c-51.07-37-97.83-59.12-135.21-64.11-39.27-5.24-83.45 11.74-121.17 46.56-49.8 46-78.67 113.74-75.35 176.88 5.14 97.55 36.25 179.84 83.22 220.15 27.94 24 61.71 34.2 100.35 30.32 49.18-4.91 99.36-24.35 149.15-57.77a57.36 57.36 0 0 1 59-3.13 55.41 55.41 0 0 1 29.7 49.66V2530h418.2a63 63 0 0 0 57.18-89.36c-58.56-129.17-75.87-217.57-51.45-262.74 10-18.57 26.94-29.81 50.25-33.43 24.42-3.84 54.71-6.05 87.54-6.05z"/><path fill="#91b3fa" d="M2579.25 915.5a8.43 8.43 0 0 1-9.61-5.88c-2.72-9.12-5.07-18.49-7-27.86a8.43 8.43 0 0 1 6.54-10h.16a8.43 8.43 0 0 1 9.8 6.58 319.86 319.86 0 0 0 6.66 26.46 8.43 8.43 0 0 1-5.68 10.48 6.34 6.34 0 0 1-.87.22zm-12.95-72.24c-.33.06-.66.1-1 .13a8.44 8.44 0 0 1-9-7.84c-.64-9.54-.87-19.2-.7-28.71a8.421 8.421 0 1 1 16.84.3c-.16 9 .07 18.22.68 27.28a8.42 8.42 0 0 1-6.82 8.84zm3.27-73.29a8.45 8.45 0 0 1-9.87-9.61c1.5-9.42 3.42-18.89 5.72-28.15a8.423 8.423 0 1 1 16.35 4.06 324.38 324.38 0 0 0-5.43 26.73 8.42 8.42 0 0 1-6.77 7zm19.59-70.74a8.43 8.43 0 0 1-9.36-11.43c3.57-8.85 7.56-17.66 11.87-26.17a8.42 8.42 0 1 1 15 7.61c-4.09 8.08-7.88 16.44-11.27 24.86a8.4 8.4 0 0 1-6.24 5.13zm34.84-64.59a8.42 8.42 0 0 1-8.47-13.08c5.43-7.83 11.26-15.53 17.35-22.88a8.431 8.431 0 1 1 13 10.74c-5.79 7-11.34 14.31-16.5 21.74a8.38 8.38 0 0 1-5.38 3.48zm48.28-55.27a8.42 8.42 0 0 1-7.24-14.49c7-6.44 14.43-12.66 22-18.47a8.425 8.425 0 0 1 10.28 13.35 321.173 321.173 0 0 0-20.9 17.55 8.38 8.38 0 0 1-4.11 2.06zm299.75-76.44a8.42 8.42 0 0 1-3.56-.11c-8.78-2.16-17.79-4-26.75-5.38a8.43 8.43 0 1 1 2.61-16.65 336.12 336.12 0 0 1 28.18 5.67 8.43 8.43 0 0 1-.48 16.47zm-240.43 33.28a8.43 8.43 0 0 1-5.71-15.61c8.29-4.71 16.89-9.12 25.55-13.1a8.42 8.42 0 1 1 7 15.3c-8.23 3.79-16.39 8-24.26 12.45a8.64 8.64 0 0 1-2.58.96zm167.68-42.7a8.47 8.47 0 0 1-1.68.14 322.78 322.78 0 0 0-27.29.73 8.43 8.43 0 0 1-1.17-16.81c9.53-.66 19.19-.92 28.72-.77a8.43 8.43 0 0 1 1.42 16.71zm-100.23 13.86a8.42 8.42 0 0 1-4-16.35 339.33 339.33 0 0 1 27.83-7.06h.18a8.43 8.43 0 0 1 3.27 16.53 318.93 318.93 0 0 0-26.45 6.71 7 7 0 0 1-.83.17zM3028 522.22a8.26 8.26 0 0 1-5-.6c-4-1.78-8-3.51-12.08-5.14a8.422 8.422 0 1 1 6.28-15.63c4.27 1.71 8.54 3.53 12.71 5.41a8.42 8.42 0 0 1-1.92 16zM3202.45 710.71a8.43 8.43 0 0 1-9.47-5.45c-1.46-4.09-3-8.21-4.68-12.26a8.43 8.43 0 0 1 15.62-6.33 342.55 342.55 0 0 1 4.92 12.92 8.42 8.42 0 0 1-5.09 10.77 9 9 0 0 1-1.3.35zM2954.24 1144q-5.72 1.07-11.51 2a8.43 8.43 0 0 1-2.54-16.66c8.92-1.36 17.76-3.08 26.37-5.13a8.425 8.425 0 0 1 3.91 16.39l-16.23 3.4zm-55.83 5.63a9.49 9.49 0 0 1-1.43.14c-9.4.15-18.91-.11-28.26-.75a8.42 8.42 0 1 1 1.15-16.8c8.89.6 17.92.84 26.85.7a8.43 8.43 0 0 1 1.69 16.71zm114.37-22.32a8.42 8.42 0 0 1-4.6-16.13c8.3-3.23 16.57-6.85 24.59-10.78a8.424 8.424 0 0 1 7.41 15.13c-8.44 4.14-17.15 8-25.89 11.35a7.78 7.78 0 0 1-1.51.39zm-186.28 15.48a8.58 8.58 0 0 1-3.27 0 316.24 316.24 0 0 1-27.41-7 8.424 8.424 0 1 1 4.83-16.14 324.4 324.4 0 0 0 26 6.6 8.43 8.43 0 0 1-.17 16.53zm250.23-48.93a8.42 8.42 0 0 1-6.25-15.27c7.37-5 14.64-10.32 21.6-15.92a8.43 8.43 0 0 1 10.56 13.14c-7.33 5.89-15 11.52-22.75 16.76a8.33 8.33 0 0 1-3.16 1.25zm55.08-46.67a8.43 8.43 0 0 1-7.68-14.07c6.13-6.48 12.06-13.3 17.63-20.26a8.424 8.424 0 0 1 13.16 10.52c-5.86 7.32-12.1 14.5-18.55 21.32a8.44 8.44 0 0 1-4.56 2.45zm43.58-57.57a8.43 8.43 0 0 1-8.78-12.6c4.58-7.67 8.89-15.61 12.8-23.62a8.421 8.421 0 0 1 15.13 7.4 334.71 334.71 0 0 1-13.46 24.85 8.43 8.43 0 0 1-5.69 3.93zm30-65.71a8.27 8.27 0 0 1-4.17-.28 8.41 8.41 0 0 1-5.37-10.63c2.79-8.48 5.24-17.17 7.3-25.84a8.423 8.423 0 0 1 16.39 3.89c-2.16 9.13-4.75 18.29-7.69 27.21a8.39 8.39 0 0 1-6.47 5.61zm14.84-70.71a8.41 8.41 0 0 1-9.94-9.08 319.36 319.36 0 0 0 1.43-26.8 8.43 8.43 0 1 1 16.85.19 331.83 331.83 0 0 1-1.51 28.21 8.41 8.41 0 0 1-6.84 7.44zm-1.07-72.2-.51.08a8.41 8.41 0 0 1-9.4-7.32 356.68 356.68 0 0 0-3-19.53l-1.38-7a8.425 8.425 0 0 1 16.49-3.46q.76 3.65 1.45 7.33c1.27 6.77 2.34 13.69 3.2 20.54a8.43 8.43 0 0 1-6.85 9.36zm-461.49 339.15a8.39 8.39 0 0 1-5-.61c-4.15-1.9-8.34-3.91-12.45-6a8.42 8.42 0 1 1 7.61-15c3.91 2 7.89 3.89 11.82 5.69a8.42 8.42 0 0 1-1.95 15.94z" opacity=".3"/><path fill="#91b3fa" d="M2750.89 1022a3.92 3.92 0 0 0 4.55.38l41.17-24.52a208.79 208.79 0 0 0 64.43 20.57l19.35 43.81a3.93 3.93 0 0 0 3.93 2.33l57.28-4.81a4 4 0 0 0 3.49-3l11.76-46.42a208.65 208.65 0 0 0 60.09-31l44.68 17.31a3.93 3.93 0 0 0 4.43-1.13l37.1-43.91a3.92 3.92 0 0 0 .38-4.55L3079 905.88a208.66 208.66 0 0 0 20.58-64.42l43.81-19.35a4 4 0 0 0 2.33-3.93l-4.82-57.28a3.92 3.92 0 0 0-3-3.49l-46.42-11.76a208.9 208.9 0 0 0-31.05-60.09l17.31-44.69a3.93 3.93 0 0 0-1.14-4.42l-43.9-37.1a3.94 3.94 0 0 0-4.56-.38L2987 623.5a208.48 208.48 0 0 0-64.42-20.58l-19.35-43.81a3.94 3.94 0 0 0-3.94-2.33l-57.29 4.81a3.93 3.93 0 0 0-3.48 3L2826.78 611a209 209 0 0 0-60.08 31l-44.7-17.29a4 4 0 0 0-4.43 1.13l-37.09 43.91a3.93 3.93 0 0 0-.38 4.56l24.52 41.17a208.73 208.73 0 0 0-20.57 64.42l-43.81 19.35a3.92 3.92 0 0 0-2.33 3.94l4.81 57.27a3.93 3.93 0 0 0 3 3.49l46.42 11.76a208.65 208.65 0 0 0 31 60.09l-17.31 44.69a3.94 3.94 0 0 0 1.13 4.43Z"/><path fill="#bdd0fb" d="M2902.4 867.49a57.84 57.84 0 1 1 8.2-2.17 59.43 59.43 0 0 1-8.2 2.17zm-18.63-100.38a45.19 45.19 0 0 0-6.36 1.68 44.15 44.15 0 1 0 6.36-1.68zm35.13 182.19q-7.14 1.34-14.47 2l-4.62.31a143.77 143.77 0 0 1-22.74-.63h-.31l-.87-.11-1.7-.2a3.38 3.38 0 0 1-2.88-2.72 3.13 3.13 0 0 1 0-1.06 3.38 3.38 0 0 1 3.77-2.91 135.46 135.46 0 0 0 137.35-71.5 134.48 134.48 0 0 0 15-74.06 136.66 136.66 0 0 0-1.86-13.8 135.36 135.36 0 0 0-144.33-109.72c-74.39 6.26-129.77 71.84-123.52 146.19a135.58 135.58 0 0 0 24.94 67.64 3.375 3.375 0 0 1-5.48 3.94 142 142 0 0 1-26.17-71c-6.57-78.07 51.63-146.91 129.66-153.48a142.12 142.12 0 0 1 151.52 115.18 144.62 144.62 0 0 1 2 14.49A142.09 142.09 0 0 1 2918.9 949.3z"/><path fill="#91b3fa" d="M2337.47 1186.55a5.2 5.2 0 0 1-5.6-2.75c-2-3.94-3.91-8-5.67-12a5.202 5.202 0 0 1 9.54-4.15c1.68 3.86 3.5 7.73 5.41 11.48a5.19 5.19 0 0 1-3.68 7.47zm-14.79-37.19a5.2 5.2 0 0 1-5.94-3.64 227.35 227.35 0 0 1-5.35-22.26l-.83-4.75a5.38 5.38 0 0 1 4.28-6 5.21 5.21 0 0 1 6 4.28l.79 4.54a214.75 214.75 0 0 0 5.1 21.22 5.22 5.22 0 0 1-3.52 6.47zm-8.8-53.3-.75.09a5.22 5.22 0 0 1-5.42-5 228.34 228.34 0 0 1 .54-27.69 5.202 5.202 0 1 1 10.37.85 215.37 215.37 0 0 0-.51 26.41 5.21 5.21 0 0 1-4.23 5.34zm4.38-53.85a5.29 5.29 0 0 1-2 0 5.21 5.21 0 0 1-4-6.16 225.21 225.21 0 0 1 7.34-26.72 5.201 5.201 0 1 1 9.84 3.37 214.34 214.34 0 0 0-7 25.48 5.19 5.19 0 0 1-4.18 4.03zm17.49-51.12a5.2 5.2 0 0 1-5.63-7.39 223 223 0 0 1 13.65-24.11 5.201 5.201 0 1 1 8.72 5.67 215.52 215.52 0 0 0-13 23 5.17 5.17 0 0 1-3.74 2.83zm29.45-45.3a5.2 5.2 0 0 1-4.94-8.46 224.59 224.59 0 0 1 19.08-20.06 5.2 5.2 0 0 1 7.09 7.61 216.77 216.77 0 0 0-18.21 19.12 5.12 5.12 0 0 1-3.02 1.79zm39.54-36.79a5.2 5.2 0 0 1-4-9.33 223.52 223.52 0 0 1 23.39-14.8 5.2 5.2 0 1 1 5 9.12 215.76 215.76 0 0 0-22.3 14.11 5.16 5.16 0 0 1-2.09.9zm47.32-26a5.21 5.21 0 0 1-2.87-10 228 228 0 0 1 26.32-8.61 5.21 5.21 0 0 1 2.63 10.08 212.89 212.89 0 0 0-25.11 8.21 5.9 5.9 0 0 1-.97.32zm79.28-15.5a4.53 4.53 0 0 1-.91.09 216 216 0 0 0-22.93 1.44l-3.42.43a5.21 5.21 0 0 1-5.85-4.47 5.15 5.15 0 0 1 4.47-5.85l3.62-.45a227.91 227.91 0 0 1 24-1.5 5.2 5.2 0 0 1 1 10.31zM2576.56 1302.27a5.21 5.21 0 0 1-2-10.22 216.35 216.35 0 0 0 25.12-6.63 5.202 5.202 0 0 1 3.26 9.88 226.12 226.12 0 0 1-26.33 7zm-26.37 3.65a5 5 0 0 1-.56.08 227.15 227.15 0 0 1-27.24.48 5.205 5.205 0 0 1 .44-10.4 216.72 216.72 0 0 0 26-.46 5.2 5.2 0 0 1 1.37 10.3zm76.81-20.32a5.2 5.2 0 0 1-3.18-9.81 216.75 216.75 0 0 0 22.78-12.52 5.202 5.202 0 1 1 5.55 8.8 224.56 224.56 0 0 1-23.87 13.12 5.6 5.6 0 0 1-1.28.41zm-129.92 18a5.23 5.23 0 0 1-1.81 0 223.71 223.71 0 0 1-26.57-6.11 5.22 5.22 0 0 1 3-10 213.1 213.1 0 0 0 25.33 5.82 5.2 5.2 0 0 1 .1 10.25zm174.84-46.4a5.21 5.21 0 0 1-4.25-9.15 213.49 213.49 0 0 0 19.09-17.62 5.21 5.21 0 0 1 7.51 7.21 227 227 0 0 1-20 18.47 5.25 5.25 0 0 1-2.35 1.13zm36.8-38.32a5.2 5.2 0 0 1-5.12-8.24 218.46 218.46 0 0 0 14.34-21.68 5.2 5.2 0 0 1 9 5.2 227.85 227.85 0 0 1-15 22.73 5.19 5.19 0 0 1-3.22 2.03zm26.56-46a5.14 5.14 0 0 1-3-.33 5.2 5.2 0 0 1-2.75-6.83 214.65 214.65 0 0 0 8.71-24.48 5.203 5.203 0 1 1 10 2.88 225.54 225.54 0 0 1-9.14 25.69 5.2 5.2 0 0 1-3.82 3.08zm-289.4 115.62a5.14 5.14 0 0 1-3-.34 216.99 216.99 0 0 1-12-5.66 5.21 5.21 0 1 1 4.71-9.29c3.72 1.89 7.59 3.71 11.48 5.4a5.2 5.2 0 0 1-1.12 9.89z" opacity=".3"/><path fill="#91b3fa" d="M2437.78 1221.63a2.64 2.64 0 0 0 3 .26l27.55-16.41a139.8 139.8 0 0 0 43.11 13.77l12.94 29.31a2.64 2.64 0 0 0 2.63 1.56l38.33-3.22a2.66 2.66 0 0 0 2.34-2l7.87-31.06a139.38 139.38 0 0 0 40.2-20.78l29.91 11.58a2.62 2.62 0 0 0 3-.76l24.82-29.38a2.62 2.62 0 0 0 .26-3l-16.41-27.55a140 140 0 0 0 13.77-43.11l29.31-13a2.63 2.63 0 0 0 1.56-2.63l-3.22-38.33a2.66 2.66 0 0 0-2-2.34l-31.06-7.87a139.5 139.5 0 0 0-20.78-40.2l11.58-29.91a2.64 2.64 0 0 0-.75-3l-29.39-24.82a2.62 2.62 0 0 0-3-.26L2595.79 955a139.36 139.36 0 0 0-43.11-13.77l-12.95-29.32a2.64 2.64 0 0 0-2.63-1.56l-38.33 3.22a2.63 2.63 0 0 0-2.33 2l-7.88 31.06a139.88 139.88 0 0 0-40.2 20.78l-29.91-11.58a2.63 2.63 0 0 0-3 .76l-24.82 29.38a2.62 2.62 0 0 0-.25 3.05l16.41 27.54a139.41 139.41 0 0 0-13.77 43.12l-29.32 12.94a2.64 2.64 0 0 0-1.56 2.63l3.22 38.33a2.66 2.66 0 0 0 2 2.34l31.07 7.87a139.73 139.73 0 0 0 20.77 40.2l-11.58 29.91a2.62 2.62 0 0 0 .76 3Z"/><path fill="#bdd0fb" d="M2539.23 1118.93a39.49 39.49 0 1 1 5.64-1.49 40.07 40.07 0 0 1-5.64 1.49zm-12.45-67.17a27.67 27.67 0 0 0-4.11 1.08 29 29 0 0 0 18.82 54.76 29 29 0 0 0-14.71-55.84zm23.86 124.13-9.87 1.33a98.7 98.7 0 0 1-20-.34l-.89-.11a5.203 5.203 0 1 1 1.33-10.32 88.07 88.07 0 0 0 18.65.4l1-.09a86.83 86.83 0 0 0 40.43-14.39 88 88 0 0 0 17.71-15.67l.13-.15.39-.45a87.08 87.08 0 0 0 20.38-63.89q-.39-4.51-1.21-8.93a87.61 87.61 0 1 0-157.26 67.4 5.1 5.1 0 0 1 .89 2.08 5.2 5.2 0 0 1-9.33 4 98 98 0 1 1 175.93-75.41c.61 3.28 1.06 6.62 1.35 10a98.16 98.16 0 0 1-79.63 104.54z"/><path fill="url(#D)" d="M1688.18 1871.75s-15.67-41.23-34-37.45-38.31 17.83-38.31 17.83l-29.39 39.75s82.51 32.5 111.52 13.87c0 0 84.28 14.56 190.7-2.9-15.41-32.52-24.59-65.09-30-90.36-53.84 30.51-111.9 53.3-170.52 59.26z"/><path fill="url(#E)" d="M2134.59 1572.68s-120.66 152-275.83 239.81c5.39 25.27 14.57 57.84 30 90.36 80.49-13.21 173.65-44.73 252.63-114.77Z"/><path fill="url(#F)" d="M2285.06 2246.26c-23.59-112.08-47.19-177-126.2-389.42-24.86-66.85-47.44-134.5-36.53-205l12.26-79.17s153.54-52 323.75-2.18c0 0 232.21 100.87 74.48 599.08-71.09 79.54-154.29 102.21-247.76 76.69z"/><path fill="url(#G)" d="m2160.72 1471.64 39.82 95.65a19.05 19.05 0 0 0 14.4 11.46c22.95 3.93 78.47 10.08 114.94-13.89a9.26 9.26 0 0 0 2.47-13l-73.55-105.61Z"/><path fill="url(#H)" d="M2201.9 1325.3c-1.67 1.57-70.57 136.87-70.57 136.87l78.09 37.7 84.35-118.54s-63.88-82.39-91.87-56.03z"/><path fill="url(#I)" d="m2258.29 1395.56-38.95 64.92a12.44 12.44 0 0 1-2.14 2.66c-4.63 4.31-20.5 16.86-32.76-.22-10.45-14.57-20.26-27.81-30.77-33.27a12.44 12.44 0 0 0-16.8 5.53c-6.42 12.72-18.85 38.64-26.66 63.23a12.4 12.4 0 0 0 7.22 15.2c15.81 6.41 47.06 18 74.79 21.82a12.44 12.44 0 0 0 11.78-5c11.93-16.34 45.56-62 57-73.45 10.66-10.62 30.34-6.62 39.21-4.07a12.5 12.5 0 0 0 9.95-1.31c9-5.42 24.7-18.91 10.33-41.76a12.46 12.46 0 0 1 3.86-16.93c10-6.61 20.94-19 10.56-39.1-10.51-20.33-29.29-22.16-42.07-20.59a13 13 0 0 1-13.58-7.55 8.22 8.22 0 0 0-6.42-5.06 12.1 12.1 0 0 1-9.79-14.2c2.26-11.51.56-26.45-17.81-36.55-33.69-18.53-63.21 11.66-70.71 37.14s30.16 43.48 53.86 46.49c17.41 2.21 27 21.21 30.79 31.14a12.48 12.48 0 0 1-.89 10.93z"/><path fill="url(#J)" d="M2244.63 1476.4s16.76-39.43 35.94-37.82 34.27 20.72 10.5 42.19c-29.56 26.72-46.44-4.37-46.44-4.37z"/><path fill="url(#K)" d="M2270 3234.06c37.08 3.2 101.44 8.41 152.18 10.64 30.5 1.35 48.06-1.64 58.18-5.69 0 1.14 0 2.22-.1 3.22a10.49 10.49 0 0 1-10 9.91c-95.87 5.35-172.12 1.85-199.27.2a7.48 7.48 0 0 1-6.09-11.23 61.94 61.94 0 0 1 5.1-7.05z"/><path fill="url(#L)" d="M2422.13 3244.7c-50.74-2.23-115.1-7.44-152.18-10.64 36.46-44.73 152.18-74.88 152.18-74.88h32.69c22.48 32.4 25.73 63.25 25.49 79.83-10.12 4.05-27.68 7.04-58.18 5.69z"/><path fill="url(#M)" d="m2460.32 3105.82-3.06 60.52a13.81 13.81 0 0 1-11.8 13 53.62 53.62 0 0 1-24.55-2 16.37 16.37 0 0 1-11-12.57l-10.57-58.92Z"/><path fill="url(#N)" d="M2884.85 3244.25c16.09-2.24 23.36-10.6 26.41-19.53l.06.24c2.37 9.42-3.12 19.19-14.08 23.83-13.26 5.61-27.75 6.57-39 6.11-12.07-.5-23.15-5.5-29.24-13.49l-.09-.12c12.09 6 29.09 6.71 55.94 2.96z"/><path fill="url(#O)" d="M2809 3105.43h27c41.06-.84 66.84 85.76 75.28 119.29-3.05 8.93-10.32 17.29-26.41 19.53-26.82 3.74-43.82 3-55.94-3-22.18-29.19-33.18-71.94-38.46-96.89-6.04-28.36 18.53-38.93 18.53-38.93z"/><path fill="url(#P)" d="m2832.52 3049.25 15 59.53a16.16 16.16 0 0 1-8.41 18.31c-8.37 4.3-20.16 8.81-31 7.51a13.54 13.54 0 0 1-11-9l-22-62.63Z"/><path fill="url(#Q)" d="M2850.37 3066.46c-18.62 16.52-79.19 18.7-79.19 18.7C2553 2561.49 2462 2417.34 2462 2417.34c31.51 197.65 6.79 705 6.79 705-36 15.88-82.42 0-82.42 0-2.92-323.59-48.48-671.29-107.24-893.77 147.47-3.32 227.61-35.47 253.22-55.72 122.95 198.15 318.02 893.61 318.02 893.61z"/><path fill="url(#R)" d="m2242 2374.9 27.14 168.77a55.6 55.6 0 0 0 61.72 46.22l406.14-49.54a40.1 40.1 0 0 0 35.33-38.93c.87-43.61-.84-121.22-19.14-191.93Z"/><path fill="#fff" d="M2342.23 2578.67a1.16 1.16 0 0 1-1.15-1 1.17 1.17 0 0 1 1-1.3l9.19-1.12a1.13 1.13 0 0 1 1.29 1 1.15 1.15 0 0 1-1 1.29l-9.2 1.12zm-21.48-.53a1.07 1.07 0 0 1-.25 0 53.91 53.91 0 0 1-9-2.89 1.16 1.16 0 1 1 .9-2.14 51.41 51.41 0 0 0 8.61 2.77 1.16 1.16 0 0 1-.26 2.29zm52.13-3.21a1.16 1.16 0 0 1-1.15-1 1.17 1.17 0 0 1 1-1.3l9.2-1.11a1.15 1.15 0 0 1 .28 2.29l-9.2 1.12zm30.65-3.73a1.16 1.16 0 0 1-.14-2.31l9.19-1.12a1.13 1.13 0 0 1 1.29 1 1.15 1.15 0 0 1-1 1.29l-9.2 1.13zm30.65-3.74a1.16 1.16 0 0 1-.14-2.31l9.19-1.12a1.12 1.12 0 0 1 1.29 1 1.16 1.16 0 0 1-1 1.29l-9.2 1.12zm30.65-3.74a1.16 1.16 0 0 1-.14-2.31l9.19-1.12a1.14 1.14 0 0 1 1.29 1 1.16 1.16 0 0 1-1 1.29l-9.2 1.12zm-170.57-.57a1.18 1.18 0 0 1-.83-.35 54.29 54.29 0 0 1-5.92-7.37 1.16 1.16 0 0 1 1.92-1.29 50.59 50.59 0 0 0 5.67 7.05 1.16 1.16 0 0 1 0 1.64 1.2 1.2 0 0 1-.84.32zm201.22-3.17a1.16 1.16 0 0 1-.14-2.31l9.19-1.12a1.13 1.13 0 0 1 1.29 1 1.16 1.16 0 0 1-1 1.29l-9.2 1.12zm30.65-3.74a1.16 1.16 0 0 1-.14-2.31l9.19-1.12a1.16 1.16 0 0 1 .28 2.3l-9.19 1.12zm30.65-3.74a1.15 1.15 0 0 1-.14-2.3l9.19-1.13a1.16 1.16 0 0 1 .29 2.3l-9.2 1.12zm30.65-3.74a1.15 1.15 0 0 1-.14-2.3l9.19-1.12a1.13 1.13 0 0 1 1.29 1 1.15 1.15 0 0 1-1 1.29l-9.2 1.12zm30.65-3.73a1.16 1.16 0 0 1-.14-2.31l9.19-1.12a1.12 1.12 0 0 1 1.29 1 1.15 1.15 0 0 1-1 1.29l-9.2 1.13zm30.65-3.74a1.16 1.16 0 0 1-.14-2.31l9.19-1.12a1.15 1.15 0 1 1 .29 2.29l-9.2 1.13zm30.65-3.74a1.16 1.16 0 0 1-.14-2.31l9.2-1.12a1.14 1.14 0 0 1 1.28 1 1.16 1.16 0 0 1-1 1.29l-9.19 1.12zm-398.93-1.55a1.17 1.17 0 0 1-1.14-1l-1.48-9.16a1.15 1.15 0 0 1 2.28-.37l1.48 9.13a1.16 1.16 0 0 1-.94 1.34zm429.58-2.23a1.16 1.16 0 0 1-.14-2.31l9.19-1.12a1.13 1.13 0 0 1 1.29 1 1.16 1.16 0 0 1-1 1.29l-9.2 1.12zm29.89-6.66a1.16 1.16 0 0 1-.57-2.16 36.75 36.75 0 0 0 7.18-5.35 1.16 1.16 0 1 1 1.6 1.68 39.28 39.28 0 0 1-7.64 5.68 1.16 1.16 0 0 1-.57.19zm-464.38-21.59a1.16 1.16 0 0 1-1.14-1l-1.47-9.14a1.15 1.15 0 0 1 1-1.33 1.13 1.13 0 0 1 1.33 1l1.47 9.14a1.15 1.15 0 0 1-1 1.33zm482.51-2.35a1.45 1.45 0 0 1-.28 0 1.15 1.15 0 0 1-.84-1.4 37.13 37.13 0 0 0 1.06-8.08v-.83a1.17 1.17 0 0 1 1.16-1.15 1.17 1.17 0 0 1 1.15 1.18v.85a39.52 39.52 0 0 1-1.13 8.59 1.14 1.14 0 0 1-1.12.88zm-487.41-28.14a1.16 1.16 0 0 1-1.15-1L2268 2465a1.15 1.15 0 0 1 2.28-.37l1.47 9.15a1.17 1.17 0 0 1-1 1.33zm488.66-2.65a1.15 1.15 0 0 1-1.16-1.15q0-4.5-.11-9.25a1.16 1.16 0 0 1 1.14-1.18 1.12 1.12 0 0 1 1.18 1.14l.1 9.27a1.16 1.16 0 0 1-1.15 1.17zm-493.56-27.84a1.16 1.16 0 0 1-1.15-1l-1.47-9.15a1.15 1.15 0 0 1 1-1.32 1.14 1.14 0 0 1 1.33 1l1.47 9.14a1.16 1.16 0 0 1-1 1.33zm492.82-3a1.16 1.16 0 0 1-1.16-1.11l-.44-9.24a1.15 1.15 0 0 1 1.09-1.22 1.09 1.09 0 0 1 1.22 1.09l.44 9.27a1.15 1.15 0 0 1-1.1 1.21zm-497.72-27.44a1.18 1.18 0 0 1-1.15-1l-1.47-9.15a1.16 1.16 0 0 1 2.29-.37l1.47 9.15a1.15 1.15 0 0 1-1 1.32zm495.83-3.39a1.16 1.16 0 0 1-1.15-1.06q-.36-4.58-.8-9.22a1.16 1.16 0 0 1 1.05-1.26 1.13 1.13 0 0 1 1.26 1q.42 4.65.8 9.24a1.16 1.16 0 0 1-1.06 1.25zm-500.74-27.1a1.15 1.15 0 0 1-1.14-1l-1.66-10.33 4.77-.61a1.13 1.13 0 0 1 1.29 1 1.15 1.15 0 0 1-1 1.3l-2.39.31 1.28 8a1.16 1.16 0 0 1-1 1.33zm497.61-3.62a1.16 1.16 0 0 1-1.15-1l-1.21-9.18a1.15 1.15 0 0 1 1-1.3 1.13 1.13 0 0 1 1.3 1l1.22 9.2a1.16 1.16 0 0 1-1 1.29zm-474.05-8.72a1.16 1.16 0 0 1-.15-2.31l9.18-1.18a1.12 1.12 0 0 1 1.3 1 1.16 1.16 0 0 1-1 1.3l-9.19 1.18zm30.62-3.92a1.16 1.16 0 0 1-.15-2.31l9.19-1.17a1.11 1.11 0 0 1 1.3 1 1.16 1.16 0 0 1-1 1.29l-9.19 1.18zm30.63-3.92a1.16 1.16 0 0 1-.15-2.31l9.19-1.18a1.14 1.14 0 0 1 1.3 1 1.16 1.16 0 0 1-1 1.29l-9.19 1.18zm30.63-3.92a1.16 1.16 0 0 1-.15-2.31l9.19-1.17a1.1 1.1 0 0 1 1.29 1 1.15 1.15 0 0 1-1 1.29l-9.19 1.18zm30.62-3.92a1.16 1.16 0 0 1-.15-2.31l9.19-1.17a1.11 1.11 0 0 1 1.3 1 1.16 1.16 0 0 1-1 1.29l-9.19 1.18zm30.63-3.92a1.16 1.16 0 0 1-.15-2.31l9.19-1.17a1.13 1.13 0 0 1 1.3 1 1.17 1.17 0 0 1-1 1.3l-9.19 1.17zm316.34-2.22a1.15 1.15 0 0 1-1.14-1q-.81-4.53-1.69-9.08a1.16 1.16 0 0 1 .92-1.36 1.15 1.15 0 0 1 1.35.92l1.7 9.12a1.16 1.16 0 0 1-.94 1.34.71.71 0 0 1-.16.06zm-285.71-1.7a1.16 1.16 0 0 1-.15-2.31l9.19-1.17a1.11 1.11 0 0 1 1.3 1 1.17 1.17 0 0 1-1 1.3l-9.19 1.17zm30.63-3.92a1.15 1.15 0 0 1-.15-2.3l9.19-1.18a1.11 1.11 0 0 1 1.29 1 1.16 1.16 0 0 1-1 1.3l-9.19 1.17zm30.62-3.92a1.16 1.16 0 0 1-.15-2.31l9.19-1.17a1.12 1.12 0 0 1 1.3 1 1.17 1.17 0 0 1-1 1.3l-9.19 1.17zm30.63-3.92a1.15 1.15 0 0 1-.15-2.3l9.19-1.18a1.14 1.14 0 0 1 1.3 1 1.16 1.16 0 0 1-1 1.3l-9.19 1.17zm30.63-3.92a1.15 1.15 0 0 1-.15-2.3l9.19-1.18a1.14 1.14 0 0 1 1.3 1 1.16 1.16 0 0 1-1 1.3l-9.18 1.17zm30.62-3.91a1.16 1.16 0 0 1-.14-2.31l9.18-1.18a1.1 1.1 0 0 1 1.3 1 1.16 1.16 0 0 1-1 1.3l-9.19 1.18zm30.63-3.92a1.17 1.17 0 0 1-1.15-1 1.16 1.16 0 0 1 1-1.29l9.19-1.18a1.11 1.11 0 0 1 1.3 1 1.16 1.16 0 0 1-1 1.3l-9.19 1.18zm30.63-3.92a1.16 1.16 0 0 1-.15-2.31l9.19-1.18a1.13 1.13 0 0 1 1.3 1 1.16 1.16 0 0 1-1 1.29l-9.18 1.18zm65-1.1a1.15 1.15 0 0 1-1.12-.88l-1.49-6-1 .13a1.13 1.13 0 0 1-1.29-1 1.15 1.15 0 0 1 1-1.3l3-.39.25 1 1.76 7a1.16 1.16 0 0 1-.85 1.4zm-34.4-2.82a1.16 1.16 0 0 1-.15-2.31l9.19-1.18a1.12 1.12 0 0 1 1.29 1 1.15 1.15 0 0 1-1 1.3l-9.18 1.18z"/><path fill="url(#S)" d="m2345.2 2236.66-.45-13.23a10.14 10.14 0 0 1 6.87-6.84c12.39-3.63 43.29-11.18 59.83-1.83l4.2 14.9Z"/><path fill="url(#T)" d="M2383.09 2219a18.37 18.37 0 0 1-8.75 1.11 8 8 0 0 1-7-6.88l-5.24-40.93 20.83-2.67 5.23 40.9a8 8 0 0 1-5.07 8.47z"/><path fill="url(#U)" d="m2546.93 2210.85-.45-13.23a10.09 10.09 0 0 1 6.87-6.84c12.38-3.63 43.28-11.18 59.83-1.83l4.19 14.9Z"/><path fill="url(#V)" d="M2584.81 2193.22a18.35 18.35 0 0 1-8.75 1.11 8 8 0 0 1-7-6.89l-5.79-45.24 20.82-2.66 5.79 45.21a8 8 0 0 1-5.07 8.47z"/><path fill="url(#W)" d="m2361.26 2182.63 223-36.07a10.9 10.9 0 0 0 9.19-10.19 92.2 92.2 0 0 0-2.94-28.48 26 26 0 0 0-27.84-18.66c-41.91 4.35-148.28 18-203.94 48.69a20.64 20.64 0 0 0-10.55 15.79c-.71 6.35-.65 14.69 2.37 22.81a9.73 9.73 0 0 0 10.71 6.11z"/><path fill="#fff" d="M2355.76 2173.59a3.08 3.08 0 0 1-3-2.39 55.45 55.45 0 0 1-.85-17.81 20.88 20.88 0 0 1 12.3-16.18c12.09-5.3 35.33-14.65 55-17.73a3.09 3.09 0 0 1 1 6.11c-19.68 3.07-44 13.1-53.47 17.27a14.71 14.71 0 0 0-8.65 11.37 49.23 49.23 0 0 0 .75 15.58 3.09 3.09 0 0 1-2.31 3.7 2.92 2.92 0 0 1-.77.08z" opacity=".58"/><path fill="url(#X)" d="M2240.63 2244.86c72.24-10.18 384.85-53.52 477.19-54.19a18.64 18.64 0 0 1 17.74 12.3c8.49 23.6 26.51 78.65 32.39 134.75a16.34 16.34 0 0 1-11.29 17.15l-202.54 65.83-73.73 9.43-226.78-15.66a17.44 17.44 0 0 1-16-14.27c-5-28-15.73-93.69-13.56-137.17a19.29 19.29 0 0 1 16.58-18.17z"/><path fill="#fff" d="M2479.86 2413.18h-.07l-9.25-.64a1.16 1.16 0 0 1-1.07-1.24 1.23 1.23 0 0 1 1.23-1.07l9.24.64a1.16 1.16 0 0 1-.08 2.31zm8.45-1.08a1.16 1.16 0 0 1-.15-2.31l9.19-1.17a1.09 1.09 0 0 1 1.29 1 1.17 1.17 0 0 1-1 1.3l-9.19 1.17zm-39.25-1h-.06l-9.24-.64a1.15 1.15 0 0 1-1.08-1.23 1.24 1.24 0 0 1 1.24-1.08l9.24.64a1.16 1.16 0 0 1-.08 2.31zm-30.8-2.13h-.08l-9.24-.63a1.17 1.17 0 0 1-1.08-1.24 1.27 1.27 0 0 1 1.23-1.08l9.24.64a1.16 1.16 0 0 1-.07 2.31zm100.67-.74a1.16 1.16 0 0 1-.14-2.31l9.19-1.17a1.1 1.1 0 0 1 1.29 1 1.17 1.17 0 0 1-1 1.3l-9.19 1.17zm-131.48-1.38h-.07l-9.25-.63a1.17 1.17 0 0 1-1.07-1.24 1.26 1.26 0 0 1 1.23-1.08l9.24.64a1.16 1.16 0 0 1-.08 2.32zm-30.8-2.13h-.08l-9.24-.64a1.17 1.17 0 0 1-1.08-1.24 1.26 1.26 0 0 1 1.24-1.07l9.24.64a1.16 1.16 0 0 1-.08 2.31zm192.91-.41a1.16 1.16 0 0 1-.14-2.31l.59-.07 8-2.63a1.16 1.16 0 1 1 .71 2.2l-9 2.8zm-223.71-1.72h-.08l-9.24-.64a1.15 1.15 0 0 1-1.08-1.23 1.24 1.24 0 0 1 1.23-1.08l9.24.64a1.17 1.17 0 0 1 1.08 1.23 1.15 1.15 0 0 1-1.15 1.03zm-30.81-2.13h-.04l-9.24-.63a1.16 1.16 0 0 1-1.07-1.24 1.23 1.23 0 0 1 1.23-1.08l9.24.64a1.16 1.16 0 0 1-.08 2.31zm-30.8-2.12h-.08l-9.86-.68-.17-.88a1.28 1.28 0 0 1 .9-1.48 1.16 1.16 0 0 1 .92.16l8.37.57a1.16 1.16 0 0 1-.08 2.32zm314.71-3.47a1.16 1.16 0 0 1-.36-2.26l8.81-2.86a1.18 1.18 0 0 1 1.46.75 1.16 1.16 0 0 1-.74 1.46l-8.81 2.86a1.49 1.49 0 0 1-.31 0zm29.37-9.54a1.16 1.16 0 0 1-.36-2.26l8.81-2.86a1.18 1.18 0 0 1 1.46.74 1.16 1.16 0 0 1-.75 1.46l-8.81 2.86a1.07 1.07 0 0 1-.35.01zm-356.71-9.21a1.17 1.17 0 0 1-1.15-1l-1.43-9.17a1.17 1.17 0 0 1 1-1.32 1.18 1.18 0 0 1 1.32 1l1.42 9.16a1.15 1.15 0 0 1-1 1.32zm386.07-.33a1.16 1.16 0 0 1-.36-2.26l8.81-2.87a1.16 1.16 0 0 1 1.46.75 1.14 1.14 0 0 1-.74 1.45l-8.81 2.87a1.13 1.13 0 0 1-.36.01zm29.36-9.55a1.16 1.16 0 0 1-.36-2.26l8.81-2.86a1.17 1.17 0 0 1 1.46.74 1.15 1.15 0 0 1-.74 1.46l-8.81 2.86a1.13 1.13 0 0 1-.4.01zm29.37-9.54a1.16 1.16 0 0 1-.36-2.26l8.81-2.86a1.16 1.16 0 1 1 .72 2.2l-8.81 2.86a1.13 1.13 0 0 1-.36.01zm29.37-9.54a1.16 1.16 0 0 1-1.1-.8 1.14 1.14 0 0 1 .74-1.46l8.81-2.87a1.16 1.16 0 0 1 .71 2.2l-8.81 2.87a1.07 1.07 0 0 1-.35.01zm-478.63-1.62a1.14 1.14 0 0 1-1.14-1l-1.16-9.2a1.17 1.17 0 0 1 1-1.29 1.15 1.15 0 0 1 1.29 1l1.15 9.18a1.15 1.15 0 0 1-1 1.3zm502.07-11.73a1.16 1.16 0 0 1-1.15-1l-1.24-9.16a1.15 1.15 0 0 1 1-1.31 1.13 1.13 0 0 1 1.32 1l1.24 9.21a1.15 1.15 0 0 1-1 1.29zm-505.48-19a1.15 1.15 0 0 1-1.15-1.06l-.77-9.25a1.16 1.16 0 0 1 2.32-.17q.34 4.59.75 9.22a1.15 1.15 0 0 1-1 1.25zm500.62-11.51a1.16 1.16 0 0 1-1.14-.94q-.9-4.57-1.84-9.06a1.16 1.16 0 0 1 2.27-.48l1.84 9.1a1.16 1.16 0 0 1-.91 1.36zm-502.48-19.3a1.16 1.16 0 0 1-1.16-1.14l-.09-7.39v-1.91a1.16 1.16 0 0 1 1.15-1.15 1.15 1.15 0 0 1 1.15 1.17v1.89q0 3.6.09 7.34a1.17 1.17 0 0 1-1.13 1.19zm495.77-10.83a1.15 1.15 0 0 1-1.12-.88q-1.14-4.56-2.31-9a1.14 1.14 0 0 1 .82-1.41 1.17 1.17 0 0 1 1.42.82l2.31 9a1.15 1.15 0 0 1-.84 1.4.9.9 0 0 1-.28.02zm-484.34-10.67a1.16 1.16 0 0 1-.16-2.31l9.18-1.28a1.16 1.16 0 1 1 .31 2.29l-9.17 1.29zm30.59-4.25a1.16 1.16 0 0 1-.15-2.31l9.17-1.26a1.14 1.14 0 0 1 1.31 1 1.15 1.15 0 0 1-1 1.3l-9.18 1.27zm30.61-4.19a1.16 1.16 0 0 1-.15-2.31l9.18-1.24a1.16 1.16 0 1 1 .31 2.29l-9.18 1.25zm30.61-4.13a1.16 1.16 0 0 1-.15-2.31l9.18-1.23a1.15 1.15 0 0 1 1.31 1 1.17 1.17 0 0 1-1 1.3l-9.18 1.23zm30.62-4.07a1.16 1.16 0 0 1-.15-2.31l9.19-1.21a1.16 1.16 0 1 1 .3 2.3l-9.19 1.21zm353.72-2.48a1.16 1.16 0 0 1-1.11-.82l-2.71-8.85a1.15 1.15 0 0 1 2.2-.7q1.34 4.24 2.73 8.88a1.15 1.15 0 0 1-.78 1.44 1 1 0 0 1-.33 0zm-323.09-1.53a1.15 1.15 0 0 1-.15-2.3l9.19-1.19a1.16 1.16 0 1 1 .3 2.3l-9.19 1.18zm30.63-3.92a1.16 1.16 0 0 1-.14-2.31l9.19-1.16a1.12 1.12 0 0 1 1.29 1 1.15 1.15 0 0 1-1 1.29l-9.19 1.17zm30.64-3.85a1.16 1.16 0 0 1-.14-2.31l9.19-1.14a1.12 1.12 0 0 1 1.29 1 1.15 1.15 0 0 1-1 1.29l-9.19 1.14zm30.64-3.76a1.16 1.16 0 0 1-.13-2.31l9.19-1.1a1.12 1.12 0 0 1 1.29 1 1.17 1.17 0 0 1-1 1.29l-9.2 1.1zm30.67-3.65a1.16 1.16 0 0 1-1.15-1 1.14 1.14 0 0 1 1-1.28l9.21-1.07a1.12 1.12 0 0 1 1.28 1 1.14 1.14 0 0 1-1 1.28l-9.21 1.07zm30.68-3.51a1.16 1.16 0 0 1-.13-2.31l9.2-1a1.14 1.14 0 0 1 1.28 1 1.16 1.16 0 0 1-1 1.28l-9.21 1zm30.69-3.35a1.16 1.16 0 0 1-1.15-1 1.14 1.14 0 0 1 1-1.27l9.21-1a1.16 1.16 0 1 1 .25 2.3l-9.22 1zm30.72-3.14a1.16 1.16 0 0 1-.11-2.31l9.23-.89a1.13 1.13 0 0 1 1.26 1 1.16 1.16 0 0 1-1.05 1.26l-9.22.89zm98.88-2.67a1.15 1.15 0 0 1-1.09-.78l-1.18-3.31-4.21.06a1.16 1.16 0 0 1 0-2.32l4.55-.06a1.81 1.81 0 0 1 1.74 1.14l1.33 3.72a1.16 1.16 0 0 1-.71 1.48 1.22 1.22 0 0 1-.43.07zm-68.13-.18a1.16 1.16 0 0 1-.1-2.31q4.74-.4 9.24-.77a1.16 1.16 0 1 1 .18 2.31l-9.22.77zm30.79-2.38a1.16 1.16 0 0 1-.08-2.31q4.82-.32 9.26-.57a1.09 1.09 0 0 1 1.22 1.09 1.15 1.15 0 0 1-1.09 1.22q-4.42.25-9.24.57z"/><path fill="url(#Y)" d="m2551.14 2452.54-64.59 8.26a16.81 16.81 0 0 1-18.47-12.54l-15.42-61.19a16.8 16.8 0 0 1 14.22-20.74l77.59-9.93a16.81 16.81 0 0 1 19 16l2.41 62.86a16.82 16.82 0 0 1-14.74 17.28z"/><path fill="url(#Z)" d="m2541.73 2442.12-49.16 6.29a12.8 12.8 0 0 1-14.06-9.54l-11.73-46.58a12.78 12.78 0 0 1 10.82-15.78l59.06-7.56a12.78 12.78 0 0 1 14.43 12.16l1.84 47.85a12.79 12.79 0 0 1-11.2 13.16z"/><path fill="url(#a)" d="M2503.32 1946.81c15.23 63 15.64 124.55 13.32 147a17.46 17.46 0 0 1-16.15 15.65l-34.45 2.23c-12.88.75-27.17-7.39-36.73-14.19a5.75 5.75 0 0 0-8.47 7.26c4.7 9.19 12.85 16.42 20.95 22.57 4.87 3.7 21.05 10.28 19.92 17.56a13 13 0 0 1-3.23 6.09c-9 10.79-22.6 16.55-36 20.67a10 10 0 0 0-4.65 2.38c-.33 8.68 26.38 18.33 33.28 20.62a76.52 76.52 0 0 0 32.13 3.73c26.88-2.83 51.7-21.38 66.18-43.75 38.7-59.8 58.71-132 66-187.25-36.01-36.02-90.36-26.9-112.1-20.57z"/><path fill="url(#b)" d="M2615.42 1973c28.71-216.9-138.44-383.68-138.44-383.68l-99.45 115.94c75.5 94.11 111.39 180.35 127.79 248.08 21.74-6.29 74.09-16.34 110.1 19.66z"/><path fill="url(#c)" d="M2503 1952.32a6.15 6.15 0 0 1-6-4.71c-20.21-83.5-62.81-166.16-126.61-245.68a6.16 6.16 0 0 1 9.61-7.71c64.93 81 108.33 165.23 129 250.49a6.15 6.15 0 0 1-4.54 7.43 6.06 6.06 0 0 1-1.46.18z"/><path fill="url(#d)" d="M1156.06 3238.15a12.16 12.16 0 0 0-.32-3.21c-16-63.41-95.38-102.9-95.38-102.9l-31.46 2.46c-18.09 55.89-15.76 90.17-12.86 105.44.08.42.21.83.33 1.25 25.95 2.31 79.36 3.81 139.69-3.04z"/><path fill="url(#e)" d="M1016.37 3241.19c1.4 5.09 5.16 9.06 10 10.08 36.91 7.76 95.58 1.51 120.22-1.71 5.43-.71 9.4-5.73 9.49-11.41-60.35 6.85-113.76 5.35-139.71 3.04z"/><path fill="url(#f)" d="m1016.25 3087.65 13.33 64.14a10.46 10.46 0 0 0 9 8.62 88.77 88.77 0 0 0 20.64-.32c6.87-1 11.66-8 10.44-15.49l-9.26-56.95Z"/><path fill="url(#g)" d="M1292.3 3240.37c-34.74-1-52.71-5.06-62-8.86l.11 10.62c.12 3.89 3 7 6.54 7l190.76-1.23c6.09 0 9.65-7.1 7-12.68-25 2.03-88.71 6.66-142.41 5.15z"/><path fill="url(#h)" d="M1434.72 3235.19a8.65 8.65 0 0 0-.76-1.44c-16.84-23.54-59.75-70.41-144.53-90.74l-40.68-1.29s-18.11 31.48-18.45 89.79c9.29 3.8 27.26 7.89 62 8.86 53.7 1.51 117.41-3.12 142.42-5.18z"/><path fill="url(#i)" d="M1239.4 3082c.64 3 9.1 48.64 12.38 66.33a8.85 8.85 0 0 0 8 7.51c7 .39 18.2.44 27.86-2.19 5.21-1.41 8.71-6.72 8.34-12.62l-4.55-72.19Z"/><path fill="url(#j)" d="M1208.58 2239.33s56 384.47 96.33 842c.75 8.52-6 15.93-14.41 17.69-12.34 2.6-30.47 5.69-45.48 5.27a16.86 16.86 0 0 1-16.06-14.07c-13.75-80.67-111.91-513.6-137.67-608.88 0 0-29.59 404.74-20.13 614.72a10 10 0 0 1-8.78 10.35 167.4 167.4 0 0 1-36.51-.1A13.33 13.33 0 0 1 1014 3095c-9.8-68.27-66.19-474.64-63.79-767.37.13-16.51 19.37-152.15 19.37-152.15Z"/><path fill="url(#k)" d="M961.17 2261.49a15.8 15.8 0 0 1-10.39-13.33c-7.44-72.19-43.47-519.77 184-703.88 0 0 13-34.13 120.25 49.76s49.81 171.81 24.14 293.08c-31.06 146.75-85.55 266.71-61.44 357a12.51 12.51 0 0 1-7.67 15c-83.31 30.72-166.26 31.73-248.89 2.37z"/><path fill="url(#l)" d="M1223.47 1410.17c-.07 6.37-90.89 135.37-90.89 135.37s16.3 32.1 94.12 58.17l67.18-138.12Z"/><path fill="url(#m)" d="M1295 1336.26s32.32 74.23 34.49 113.19 10.56 64.24-34.49 72.09-83-14.6-103.56-53.41c0 0-32.21-59.8-25-84.29s128.56-47.58 128.56-47.58Z"/><path fill="url(#n)" d="m1206.8 1440.23 2.57-1.13a6.19 6.19 0 0 0 3-8.5c-6.35-12.27-18.74-40.4-2.74-47 20.62-8.46 102.29-25.11 119.91-54.09 16.94-27.85 1.93-63.81-20.62-74a3.1 3.1 0 0 0-4.06 1.32l-1.88 3.56a3.07 3.07 0 0 1-5.65-.58 3 3 0 0 0-5.51-.79c-5.42 8.67-20 22.72-59.15 29.94-55.57 10.26-92.32 32.75-93.23 71.16a3.07 3.07 0 0 1-4.74 2.52c-4.1-2.5-10.67-3.67-19.45 3.71-15.26 12.83-9 46.12 24.45 73.51a3 3 0 0 1-.15 4.9c-6.07 4-15.11 13.35 8.32 25.87 24.24 13 42.34 11.89 49.3 10.74a3 3 0 0 0 2.48-3.68l-7.44-33.75a3.06 3.06 0 0 1 3-3.72Z"/><path fill="url(#o)" d="M1208.2 1447.35s-12.32-47.42-33.58-34.12 11 53.13 28.12 54.9Z"/><path fill="url(#p)" d="m1289.49 1633 6.26 168.17a464 464 0 0 0 50.84 14.44c10.09-32.47 32.3-72.32 50.48-102-66.81-23.61-107.58-80.61-107.58-80.61z"/><path fill="url(#q)" d="M1623.06 1630.1c-91.65 99-165.83 104.78-226 83.52-18.18 29.63-40.39 69.48-50.48 102 244.75 54 302.39-171 302.39-171Z"/><path fill="url(#r)" d="M1641.64 1619.59s10.56-11.33 30.1-7.77 36.93 10.35 49.11 0 16.45 3.54 16.45 3.54l-36.45 27.71Z"/><path fill="url(#s)" d="M1619.84 1639s7.23-30.24 29-26.1 71.29 31.06 84.05 26.1 29.06-16.82 37.43-12.63l-14.74 18.33s37.89-21.86 44.41-8.43l-63 35.48s-92.25-9.27-117.15-32.75z"/><path fill="url(#t)" d="M1187.75 1853.06s172.31 144.31 358.37 81.34a44.36 44.36 0 0 1 34.93 2.63l53.49 28.26a47.77 47.77 0 0 0 63.29-17.72c7.43-12.44 13.77-26.63 15-40.24L1608.19 1865l7.72-12.83s-51.1-4.33-64.48 32.29c0 0-97.33 40.49-261.49-140.07 0-.04-74.49 63.3-102.19 108.67z"/><path fill="url(#u)" d="M1178.48 1851.57a2.87 2.87 0 0 1-1.65-.51c-72.55-49-106.68-128.13-107-128.93a2.95 2.95 0 1 1 5.43-2.3c.33.77 33.83 78.33 104.89 126.35a2.95 2.95 0 0 1-1.65 5.39Z"/><path fill="url(#v)" d="M1286.54 1741.91a3 3 0 0 1-2.48-1.36c-.22-.34-22.38-34.84-64.6-110.43-13-23.25-30-38-50.71-43.75-34.22-9.56-67.21 8.79-67.53 9a3 3 0 0 1-2.92-5.13c1.43-.8 35.35-19.78 72-9.53 22.26 6.21 40.54 21.87 54.32 46.56 42.11 75.4 64.19 109.78 64.41 110.12a2.95 2.95 0 0 1-2.48 4.55Z"/></g></svg>